<svg width="89" height="87" viewBox="0 0 89 87" fill="none" xmlns="http://www.w3.org/2000/svg">
<path d="M89 45.3854C89 67.8883 71.0296 86.1304 48.8621 86.1304C26.6945 86.1304 8.72412 67.8883 8.72412 45.3854C8.72412 22.8826 26.6945 4.64044 48.8621 4.64044C71.0296 4.64044 89 22.8826 89 45.3854ZM13.16 45.3854C13.16 65.4014 29.1443 81.6275 48.8621 81.6275C68.5798 81.6275 84.5641 65.4014 84.5641 45.3854C84.5641 25.3695 68.5798 9.1434 48.8621 9.1434C29.1443 9.1434 13.16 25.3695 13.16 45.3854Z" fill="#DC143C"/>
<path d="M72.862 40.7649V40.0648L72.7241 39.7848H72.0345L71.2069 39.5047L70.6551 39.2247L69.8276 38.6646L69.1379 38.2446L68.4482 37.4045L68.0345 36.7044L67.7586 36.1443L67.6207 35.5842V34.7441L67.7586 34.0441L67.8965 33.624L68.1724 33.0639L68.4482 32.9239L68.7241 32.6439L69.1379 32.5039L70.1034 32.6439L70.6551 33.0639L71.0689 33.484L71.2069 33.0639V32.6439L71.0689 32.5039L70.931 32.2238L70.6551 32.5039L70.2413 32.6439L69.2758 32.3638L68.862 32.5039H68.5862L68.0345 32.0838L67.6207 31.6638L67.4827 30.4036V29.8435L67.6207 29.2835L67.8965 28.4434L68.1724 27.7433L68.7241 27.1832L69.1379 26.7632L69.6896 26.4831H70.2413L70.931 26.6231L71.6207 27.0432L72.1724 27.3232L72.0345 26.6231L72.1724 25.643L72.3103 25.083L72.5862 24.6629L72.862 24.3829L73.2758 24.2429H73.6896H74.1034L74.6551 24.5229L75.0689 24.9429L75.4827 25.503L75.7586 26.0631L76.0345 26.7632L76.3103 27.4632V26.9032L76.4482 26.0631L76.7241 25.643L77 25.223L77.4138 24.9429L77.9655 24.8029L78.3793 24.9429L78.931 25.503L79.3448 26.0631L79.6207 26.7632L79.7586 27.6033V28.0233V28.4434L80.0345 28.1633L80.3103 27.8833L80.4482 27.6033L80.7241 27.3232L81 27.1832H81.2758H81.6896H82.1034L82.5172 27.4632L82.931 27.8833L83.0689 28.3033V29.0034V29.8435L82.931 30.8237L82.6551 31.6638L82.2413 32.3638L81.8276 32.9239L81.4138 33.344L81.5517 33.484L81.6896 34.3241V35.3042V36.2843L81.4138 36.9844L81.2758 37.5445L80.862 38.1046L80.5862 38.5246L80.0345 38.9447V40.6249L79.6207 40.7649L78.7931 41.1849L77.9655 41.465L76.3103 41.605L74.931 41.465L73.8276 41.1849L72.862 40.7649Z" fill="#FBD5B0"/>
<path d="M71.0689 33.484L70.6551 33.0639L70.1034 32.6439L69.1379 32.5039L68.7241 32.6439L68.4482 32.9239L68.1724 33.0639L67.8965 33.624L67.7586 34.0441L67.6207 34.7441V35.5842L67.7586 36.1443L68.0345 36.7044L68.4482 37.4045L69.1379 38.2446L69.8276 38.6646L70.6551 39.2247L71.2069 39.5047L72.0345 39.7848H72.7241L72.862 40.0648V40.7649L73.8276 41.1849L74.931 41.465L76.3103 41.605L77.9655 41.465L78.7931 41.1849L79.6207 40.7649L80.0345 40.6249V38.9447L80.5862 38.5246L80.862 38.1046L81.2758 37.5445L81.4138 36.9844L81.6896 36.2843V35.3042V34.3241L81.5517 33.484L81.4138 33.344L81.8276 32.9239L82.2413 32.3638L82.6551 31.6638L82.931 30.8237L83.0689 29.8435V29.0034V28.3033L82.931 27.8833L82.5172 27.4632L82.1034 27.1832H81.6896H81.2758H81L80.7241 27.3232L80.4482 27.6033L80.3103 27.8833L80.0345 28.1633L79.7586 28.4434M71.0689 33.484L71.2069 34.1841V34.8842M71.0689 33.484L71.2069 33.0639V32.6439L71.0689 32.5039L70.931 32.2238M71.2069 34.8842L71.0689 35.5842L70.7931 36.1443M71.2069 34.8842L71.6207 34.7441L72.1724 34.6041L72.862 34.4641L73.4138 34.6041L74.1034 34.8842L74.6551 35.1642M79.7586 28.4434V28.8634V29.1435V29.5635V29.8435V30.1236M79.7586 28.4434V28.0233V27.6033L79.6207 26.7632L79.3448 26.0631L78.931 25.503L78.3793 24.9429L77.9655 24.8029L77.4138 24.9429L77 25.223L76.7241 25.643L76.4482 26.0631L76.3103 26.9032V27.4632M79.7586 30.1236L79.4827 30.2636L79.3448 30.5436L79.0689 31.1037L78.931 31.8038V31.9438M79.7586 30.1236H80.0345H80.3103L80.5862 30.2636M78.931 32.2238L77.9655 31.8038L76.4482 31.6638M76.4482 31.6638H75.0689L73.8276 31.8038V30.9637V30.2636L73.6896 29.5635L73.4138 29.0034L73.0353 28.3177M76.4482 31.6638V31.2437V30.5436L76.5862 29.9836V29.2835V28.8634V28.3033M76.7241 35.0242L77.1379 34.4641L77.9655 34.0441M74.1034 34.3241H75.0689L75.8965 34.1841L76.3103 34.0441H76.7241M76.5862 28.3033L76.862 28.5834H77.2758H77.8276M76.5862 28.3033L76.3103 27.4632M76.3103 27.4632L76.0345 26.7632L75.7586 26.0631L75.4827 25.503L75.0689 24.9429L74.6551 24.5229L74.1034 24.2429H73.6896H73.2758L72.862 24.3829L72.5862 24.6629L72.3103 25.083L72.1724 25.643L72.0345 26.6231L72.1724 27.3232M72.1724 27.3232L72.5862 27.7433L73 28.3033L73.0353 28.3177M72.1724 27.3232L71.6207 27.0432L70.931 26.6231L70.2413 26.4831H69.6896L69.1379 26.7632L68.7241 27.1832L68.1724 27.7433L67.8965 28.4434L67.6207 29.2835L67.4827 29.8435V30.4036L67.6207 31.6638L68.0345 32.0838L68.5862 32.5039H68.862L69.2758 32.3638L70.2413 32.6439L70.6551 32.5039L70.931 32.2238M74.7931 28.3033L74.5172 28.4434L74.2413 28.5834H73.6896L73.0353 28.3177M70.931 32.2238L71.2069 31.8038L71.4827 31.2437V30.4036L71.2069 29.8435L70.931 29.4235L70.3793 28.7234" stroke="black" stroke-opacity="0.6" stroke-width="0.5" stroke-linejoin="round"/>
<path d="M72.8621 40.0648V40.7649L73.8276 41.1849L74.931 41.465L76.3103 41.605L77.9655 41.465L78.7931 41.1849L79.6207 40.7649L80.0345 40.6249V38.9446L80.5862 38.5246L80.8621 38.1045L81.2758 37.5445L81.4138 36.9844L81.6896 36.2843L81 36.9844L80.5862 37.5445L79.6207 38.1045L78.3793 38.3846L77.6896 38.5246L77 38.3846L76.5862 37.8245L76.4483 37.9645L76.0345 38.5246L75.2069 38.8046L73.8276 38.9446L73 38.8046L71.4827 38.3846L70.5172 37.9645L69.6896 37.4045L69 36.5644L68.3103 35.7242L67.7586 35.4442V36.1443L68.0345 36.7044L68.4483 37.4045L69.1379 38.2446L69.8276 38.6646L70.6552 39.2247L71.2069 39.5047L72.0345 39.7847H72.7241L72.8621 40.0648Z" fill="#EFA882"/>
<path d="M71.2069 32.7839V33.484V34.8841H71.4827L71.8965 34.3241L72.1724 33.484L72.3103 32.5039V31.3837V30.6836L71.7586 29.5635L71.2069 29.1434L70.5172 29.0034L70.7931 29.2835L71.069 29.5635L71.3448 30.2636L71.4827 31.1037L71.3448 31.6638L71.069 32.2238V32.3638L71.2069 32.7839Z" fill="#EFA882"/>
<path d="M68.1724 29.8435L67.6207 30.1236L67.4827 30.4036V30.9637L67.6207 31.5237L68.0345 31.8038L68.3103 32.0838L68.5862 32.2238H69.2758H69.6896L69.9655 31.9438L70.1034 31.2437V30.5436L69.5517 29.8435L68.7241 29.7035L68.1724 29.8435Z" fill="#FDEBD7"/>
<path d="M68.3103 35.4442L67.6207 35.3042L67.7586 34.6041L67.8965 33.904L68.1724 33.0639H68.7241L69.5517 33.2039L69.9655 33.344V34.044V34.7441L69.5517 35.3042L69.1379 35.4442H68.3103Z" fill="#FDEBD7"/>
<path d="M68.1724 29.8435L67.6207 30.1236L67.4827 30.4036V30.9637L67.6207 31.5237L68.0345 31.8038L68.3103 32.0838L68.5862 32.2238H69.2758H69.6896L69.9655 31.9438L70.1034 31.2437V30.5436L69.5517 29.8435L68.7241 29.7035L68.1724 29.8435Z" stroke="black" stroke-opacity="0.6" stroke-width="0.5" stroke-linejoin="round"/>
<path d="M68.3103 35.4442L67.6207 35.3042L67.7586 34.6041L67.8965 33.904L68.1724 33.0639H68.7241L69.5517 33.2039L69.9655 33.344V34.044V34.7441L69.5517 35.3042L69.1379 35.4442H68.3103Z" stroke="black" stroke-opacity="0.6" stroke-width="0.5" stroke-linejoin="round"/>
<path d="M15.069 56.5868L14.931 55.8867H15.7586H17H18.5172H20.2286L23.4827 55.7467L25 55.6067L26.5172 55.3267L27.7586 55.1866L28.0345 56.1668L27.6207 56.7268L26.931 57.2869L26.3793 57.987L25.4138 58.5471L24.3103 59.1071L23.069 59.6672L21.6896 60.2273L20.8621 60.3673H19.8965H18.6552L17.6896 60.2273L17 59.8072L16.1724 58.6871L15.6207 57.707L15.069 56.5868Z" fill="white"/>
<path d="M72.8621 40.7649V40.3448L72.7241 40.0648L72.1724 39.7848H71.7586H71.6207L71.3448 40.3448L71.2069 41.0449L70.931 43.2852L70.7931 44.5453V44.9654L70.931 45.9455L71.069 46.2255L71.2069 46.5056L71.7586 46.7856L72.7241 47.4857L73.8276 47.9058L75.3448 48.0458L76.7241 48.1858H77.8276H78.6552H79.6207L80.4483 48.0458L81.2758 47.9058L81.9655 47.7657L82.5172 46.7856L82.7931 46.0855V44.4053V42.8651L82.5172 41.1849L82.2414 39.9248L81.5517 39.0847L80.8621 38.8046L80.4483 38.9447L80.1724 39.0847V39.3647V40.2048L80.3103 40.3448L80.5862 40.4848L80.0345 40.9049L78.5172 41.3249L76.5862 41.745L74.6552 41.605L73.2758 41.0449L72.8621 40.7649Z" fill="white"/>
<path d="M14.931 55.8867L15.069 56.5868L15.6207 57.707L16.1724 58.6871L17 59.8072L17.6896 60.2273L18.6552 60.3673H19.8965H20.8621L21.6896 60.2273L23.069 59.6672L24.3103 59.1071L25.4138 58.5471L26.3793 57.987L26.931 57.2869L27.6207 56.7268L28.0345 56.1668L27.7586 55.1866L26.5172 55.3267L25 55.6067L23.4827 55.7467L20.2286 55.8867H18.5172H17H15.7586H14.7931M80.5862 40.4848L80.0345 40.9049L78.5172 41.3249L76.5862 41.745L74.6552 41.605L73.2758 41.0449L72.8621 40.7649V40.3448L72.7241 40.0648L72.1724 39.7848H71.7586H71.6207L71.3448 40.3448L71.2069 41.0449L70.931 43.2852L70.7931 44.5453V44.9654L70.931 45.9455L71.069 46.2255L71.2069 46.5056L71.7586 46.7856L72.7241 47.4857L73.8276 47.9057L75.3448 48.0458L76.7241 48.1858H77.8276H78.6552H79.6207L80.4483 48.0458L81.2758 47.9057L81.9655 47.7657L82.5172 46.7856L82.7931 46.0855V44.4053V42.8651L82.5172 41.1849L82.2414 39.9248L81.5517 39.0847L80.8621 38.8046L80.4483 38.9447L80.1724 39.0847V39.3647V40.2048L80.3103 40.3448L80.5862 40.4848ZM80.5862 40.4848L81 39.9248" stroke="black" stroke-opacity="0.6" stroke-width="0.5" stroke-linejoin="round"/>
<path d="M15.069 56.7268L14.931 56.0267H15.7586H17L17.1379 56.8669L17.4138 57.707L17.6896 58.267L18.2414 58.8271L19.2069 59.5272L20.3103 59.8072H21.2758L22.2414 59.6672H22.931L21.4138 60.2273L19.8965 60.5073H18.6552L17.6896 60.3673L17 59.9472L16.1724 58.8271L15.6207 57.847L15.069 56.7268Z" fill="#C1D4D5"/>
<path d="M82.7931 46.2255V44.5453V42.7251L82.6552 42.4451L82.3793 43.2852L81.8276 44.1253L80.5862 45.1054L79.4827 45.5255L77.9655 45.8055H76.3103L74.2414 45.5255L73.2758 45.2454L72.0345 44.9654L71.3448 44.4053L70.931 43.9853L70.7931 44.6854V45.1054L70.931 45.9455L71.069 46.2255L71.2069 46.5056L71.7586 46.7856L72.8621 47.4857L73.8276 47.9058L75.3448 48.0458L76.7241 48.1858H77.8276H79.7586L80.4483 48.0458L81.4138 47.9058L81.9655 47.7657L82.5172 46.9256L82.7931 46.2255Z" fill="#C1D4D5"/>
<path d="M35.4827 76.0492L34.5172 78.2895L35.3448 78.9896L37.1379 79.6896L40.7241 80.8098L44.862 81.6499L47.8965 81.9299H51.2069L54.1034 81.6499L58.6551 80.5297L61.4138 79.5496L63.7586 78.2895L67.4827 75.9092L70.5172 73.5289L71.8965 72.2687L71.7586 71.0086L70.931 68.4883L69.9655 65.6879L69.2758 63.4477L67.8965 60.5073H68.862L70.931 60.3673L71.7586 60.2273L72.862 59.9472L73.9655 59.6672L75.2069 59.1071L76.5862 58.267L77.5517 57.5669L78.5172 56.8668L79.6207 55.4667L80.4482 54.2065L81.1379 52.6663L81.5517 51.6862L81.6896 50.7061L81.9655 48.8859V47.7657L81.8276 47.9058L80.7241 48.0458L79.6207 48.1858H78.1034H76.7241L74.931 48.0458L73.8276 47.9058L72.862 47.4857L72.1724 47.0656L71.6207 46.6456L71.4827 46.9256L71.3448 47.4857L71.2069 47.9058V48.3258L71.0689 48.6058H70.931H70.5172H70.2413L69.8276 48.7459L69.4138 48.4658L68.4482 48.0458L67.3448 47.6257L66.1034 47.2057L65.2758 47.0656H64.3103L63.4827 47.2057L62.931 47.3457V46.7856L62.7931 46.3656L62.5172 45.9455L62.2413 45.5255L61.9655 45.8055L61.2758 46.2255L60.4482 46.7856L59.8965 47.0656V47.3457L59.7586 47.7657L59.6207 48.3258L59.2069 49.0259L58.6551 49.726L58.1034 50.286L57.9655 51.2662V52.1063L58.1034 53.2264L54.1034 56.5868L52.4482 52.5263L52.3103 52.1063L52.0344 51.5462L51.6207 50.9861L50.931 50.286L50.3793 49.866L49.6896 49.586L48.0344 49.4459H46.6551L44.7241 49.3059L43.2069 49.0259L41.6896 48.6058L40.862 48.1858L40.1724 47.7657L39.6207 47.3457L38.931 46.9256V48.4658L37.2758 48.6058L36.4482 48.8859L36.0344 49.1659L35.4827 49.726L35.0689 50.146L34.3793 51.4062L32.0344 53.5064L31.3448 54.3465L30.931 55.0466L30.2413 55.4667L29.2758 56.1668L28.5862 56.7268L28.0344 56.1668L27.2069 57.1469L26.1034 58.127L24.862 58.9671L23.4827 59.5272L22.3793 60.0872L21 60.3673H19.3448H18.3793L18.931 61.2074L19.4827 62.0475L20.1724 63.1676L21 64.1477L21.9655 65.1279L23.4827 66.248L24.862 67.0881L26.3793 67.6482L27.8965 67.9282H29L30.5172 67.6482L32.0344 67.0881L33.9655 65.968L35.7586 64.4278L37.4138 62.8876L38.931 61.2074L38.6551 63.5877L38.2413 66.108L37.5517 69.3284L37 71.5686L36.3103 73.9489L35.4827 76.0492Z" fill="white"/>
<path d="M37.5517 69.3284L37 71.5686L36.3103 73.9489L35.4827 76.0492L34.5172 78.2895L35.3448 78.9896L37.1379 79.6896L40.7241 80.8098L44.862 81.6499L47.8965 81.9299H51.2069L54.1034 81.6499L58.6551 80.5297L61.4138 79.5496L63.7586 78.2895L67.4827 75.9092L70.5172 73.5289L71.8965 72.2687L71.7586 71.0086L70.931 68.4883L69.9655 65.6879L69.2758 63.4477L67.8965 60.5073M37.5517 69.3284L38.931 67.9282L39.8965 66.248L40.7241 64.2878L41.8276 62.6076M37.5517 69.3284L38.2413 66.108L38.6551 63.5877L38.931 61.2074M38.931 61.2074L40.1724 59.3872L41.2758 57.5669M38.931 61.2074L37.4138 62.8876L35.7586 64.4278L33.9655 65.968L32.0344 67.0881L30.5172 67.6482L29 67.9282H27.8965L26.3793 67.6482L24.862 67.0881L23.4827 66.248L21.9655 65.1279L21 64.1477L20.1724 63.1676L19.4827 62.0475L18.931 61.2074L18.3793 60.3673H19.3448H21L22.3793 60.0872L23.4827 59.5272L24.862 58.9671L26.1034 58.127L27.2069 57.1469L28.0344 56.1668L28.5862 56.7268M28.5862 56.7268L29.2758 57.5669L29.9655 58.6871L30.5172 59.9472L30.931 61.2074L31.0689 62.0475M28.5862 56.7268L29.2758 56.1668L30.2413 55.4667L30.931 55.0466M30.931 55.0466L31.7586 54.7666L33.2758 54.6266M30.931 55.0466L31.3448 54.3465L32.0344 53.5064L34.3793 51.4062M34.3793 51.4062H35.3448H36.3103M34.3793 51.4062L35.0689 50.146L35.4827 49.726L36.0344 49.1659L36.4482 48.8859L37.2758 48.6058L38.931 48.4658V46.9256L39.6207 47.3457L40.1724 47.7657L40.862 48.1858L41.6896 48.6058L43.2069 49.0259L44.7241 49.3059L46.6551 49.4459H48.0344L49.6896 49.586L50.3793 49.866L50.931 50.286L51.6207 50.9861L52.0344 51.5462L52.3103 52.1063L52.4482 52.5263L54.1034 56.5868M54.1034 56.5868L54.5172 57.1469L55.0689 57.5669L56.0344 58.407L57 59.1071L58.5172 59.9472L59.3448 60.2273L59.8965 60.3673L60.1724 61.0674L60.5862 62.0475L61 63.4477L61.2758 64.8478L61.5517 66.248L61.8276 67.5082L62.1034 69.0483L62.3793 70.5885L62.7931 72.5488L63.0689 74.649L63.3448 75.9092L63.4827 77.3094L63.6207 78.2895M54.1034 56.5868L58.1034 53.2264L57.9655 52.1063V51.2662L58.1034 50.286L58.6551 49.726L59.2069 49.0259L59.6207 48.3258L59.7586 47.7657L59.8965 47.3457V47.0656L60.4482 46.7856L61.2758 46.2255L61.9655 45.8055L62.2413 45.5255L62.5172 45.9455L62.7931 46.3656L62.931 46.7856V47.3457M62.931 47.3457V47.6257L62.5172 48.1858L61.8276 48.8859L61.1379 49.4459L60.3103 50.006M62.931 47.3457L63.4827 47.2057L64.3103 47.0656H65.2758L66.1034 47.2057L67.3448 47.6257L68.4482 48.0458L69.4138 48.4658L69.8276 48.7459M69.8276 48.7459L69.6896 49.1659V49.4459L69.8276 50.146L69.9655 50.5661L70.2413 51.2662L70.5172 51.6862L71.0689 52.2463L71.7586 52.8064M69.8276 48.7459L70.2413 48.6058H70.5172H70.931H71.0689M71.0689 48.6058V48.8859L71.2069 49.1659L71.3448 49.4459L71.4827 50.006L71.7586 50.4261L72.3103 50.9861L72.7241 51.4062L73 51.6862M71.0689 48.6058L71.2069 48.3258V47.9058L71.3448 47.4857L71.4827 46.9256L71.6207 46.6456L72.1724 47.0656L72.862 47.4857L73.8276 47.9058L74.931 48.0458L76.7241 48.1858H78.1034H79.6207L80.7241 48.0458L81.8276 47.9058L81.9655 47.7657V48.8859L81.6896 50.7061L81.5517 51.6862L81.1379 52.6663L80.4482 54.2065L79.6207 55.4667L78.5172 56.8668L77.5517 57.5669L76.5862 58.267L75.2069 59.1071L73.9655 59.6672L72.862 59.9472L71.7586 60.2273L70.931 60.3673L68.862 60.5073H67.8965M67.8965 60.5073L65.2758 55.8867M70.7931 68.3483L70.1034 67.5082L69 66.528L67.7586 65.6879L66.5172 65.1279L65.6896 64.9878" stroke="black" stroke-opacity="0.6" stroke-width="0.5" stroke-linejoin="round"/>
<g style="mix-blend-mode:multiply">
<path d="M34.5172 78.4295L35.4827 76.1892L36.3103 74.089L37 71.7087L37.5517 69.4684L38.2413 66.248L38.6551 63.7277L38.931 61.3474L37.4138 63.0276L35.7586 64.5678L33.9655 66.108L32.0344 67.2281L30.5172 67.7882L29 68.0682H27.8965L26.3793 67.7882L24.862 67.2281L23.4827 66.388L21.9655 65.2679L21 64.2878L20.1724 63.3076L19.4827 62.1875L18.931 61.3474L18.3793 60.5073H18.7931H19.7586L19.8965 60.7873L20.1724 61.2074L20.7241 62.3275L21.2758 63.0276L21.8275 63.8677L22.6551 64.5678L23.7586 65.4079L25 65.968L26.2413 66.388H27.7586L29 66.248L30.5172 65.968L32.0344 64.9878L32.5862 64.4278L33.6896 63.3076L35.6207 60.7873L36.1724 59.8072L36.4482 59.1071H36.7241L37 59.3872H37.6896L38.7931 59.1071L39.3448 58.6871L40.1724 57.847L40.862 57.1469L41.4138 56.4468L41.2758 57.707L40.1724 59.5272L40.5862 59.1071L40.4482 59.8072V60.5073L40.5862 61.2074L40.862 61.7674L41.1379 62.0475L41.5517 62.4675L41.8276 62.7476L40.7241 64.4278L39.8965 66.388L38.931 68.0682L39.0689 69.4684V71.2886L39.2069 73.2489L39.6207 74.649L40.862 77.0293L41.9655 78.2895L43.4827 79.6896L44.862 80.5297L46.7931 81.3699L48.4482 81.9299L45.5517 81.6499L43.3448 81.3699L41.1379 80.9498L39.4827 80.5297L38.2413 80.1097L36.5862 79.5496L34.931 78.8495L34.5172 78.4295Z" fill="#BDD5D5"/>
<path d="M36.4482 49.0259L36.0344 49.3059L36.1724 49.866L36.7241 50.286L37.6896 50.8461L39.0689 51.4062L40.1724 51.6862L42.931 52.1063L44.5862 52.2463L46.1034 52.5263L43.8965 51.5462L43.0689 50.9861L42.5172 50.4261L42.2413 49.726L42.1034 49.0259L41.6896 48.7459L40.862 48.3258L40.1724 47.9058L39.6207 47.4857L38.931 47.0656V48.6058L37.2758 48.7459L36.4482 49.0259Z" fill="#BDD5D5"/>
<path d="M79.6207 48.3258H78.1034H77.222L77 49.0259L76.5862 49.586L76.0345 50.146L75.2069 50.7061L73.6896 51.2662L72.862 51.4062H72.3103L72.5862 52.1063L72.3103 52.6663L71.8965 52.9464H71.4827H71.2069V53.9265L70.931 55.0466L70.2413 55.7467L68.4482 56.3068H66.931L65.8276 55.7467L65.1379 55.0466L65.5517 56.3068L66.2413 58.127L67.2069 59.8072L67.8965 60.6473H68.862L70.931 60.5073L71.7586 60.3673L72.862 60.0872L73.9655 59.8072L75.2069 59.2471L76.5862 58.407L77.5517 57.707L78.5172 57.0069L79.6207 55.6067L80.4482 54.3465L81.1379 52.8064L81.5517 51.8262L81.6896 50.8461L81.9655 49.0259V47.9058L81.8276 48.0458L80.7241 48.1858L79.6207 48.3258Z" fill="#BDD5D5"/>
<path d="M59.4827 47.6257L59.3448 48.1858L59.6207 48.0458L60.3103 47.7657L60.862 47.2057L61.5517 46.7856L61.9655 46.3656L62.1034 45.9455L61.8276 45.5255L61.2758 45.9455L60.7241 46.3656L59.8965 46.7856L59.4827 47.0656V47.6257Z" fill="#BDD5D5"/>
</g>
<path d="M45.5517 60.6473L44.8621 60.2273L45.1379 59.8072L45.5517 59.5272L45.9655 59.2471L46.2414 58.8271L46.3793 58.407V57.5669L46.5172 56.7268L46.6552 56.0267L46.931 55.3267L47.2069 54.7666L47.7586 54.2065L48.3103 53.7865L49 53.5064L49.6896 53.2264L50.3793 53.0864L51.069 53.2264L51.2069 52.9464L51.4827 52.5263L51.7586 52.2463L52.1724 51.9663L52.7241 51.8262H53.2759H53.5517L53.9655 51.9663L54.3793 52.2463L54.5172 52.1063L54.931 51.8262L55.3448 51.5462L55.7586 51.4062H56.3103L56.7241 51.5462L57.1379 51.8262L57.4138 52.1063L57.6896 52.5263L58.1034 52.3863L59.069 52.2463H60.1724L61.4138 52.8064L62.1034 53.5064L63.069 54.7666L63.6207 55.7467L64.3103 56.8669L64.7241 57.4269L65.5517 57.987L65.9655 58.127V58.267L65.5517 58.6871L64.7241 59.1071L63.3448 59.6672H62.1034L60.4483 59.3872L58.7931 58.8271L57.6896 57.987L56.8621 57.0069L56.5862 56.1668H56.3103L54.931 56.4468H52.8621V56.8669L52.7241 57.5669L52.4483 58.267L51.8965 59.1071L51.2069 59.9472L50.2414 60.6473L48.8621 61.0674H46.931L45.5517 60.6473Z" fill="#DC143C" stroke="black" stroke-opacity="0.6" stroke-width="0.5" stroke-linejoin="round"/>
<path d="M45.5517 60.6473L44.8621 60.2273L45.1379 59.8072L45.5517 59.5272L45.9655 59.2471L46.2414 58.8271L46.3793 58.407V57.5669L46.5172 56.7268L46.6552 56.0267V57.0069V57.5669V58.127V58.6871L46.5172 59.1071L46.2414 59.3872L46.1034 59.6672L46.6552 59.8072H47.3448L48.0345 59.6672L49.2759 59.2471L50.2414 58.5471L51.2069 57.4269L51.7586 56.4468L52.0345 55.7467L52.7241 56.3068L52.8621 56.4468H54.931L56.3103 56.1668H56.5862L56.8621 56.0267L57.2759 55.7467L57.9655 55.1866L58.1034 54.6266L58.2414 53.9265H58.5172L59.069 54.0665L59.4827 54.3465L59.8965 54.6266L60.4483 55.3267L61 55.8867L61.5517 56.4468L62.2414 57.1469L62.7931 57.5669L63.7586 57.987H63.4827L62.5172 57.847L61.4138 57.2869L60.7241 56.7268L60.1724 56.1668L59.6207 55.6067L58.7931 54.9066L58.1034 54.6266L57.9655 55.1866L57.2759 55.7467L57.5517 56.3068L58.6552 57.2869L59.6207 57.847L60.5862 58.267L61.5517 58.5471L62.931 58.6871L64.5862 58.8271L65.5517 58.6871L64.7241 59.1071L63.3448 59.6672H62.1034L60.4483 59.3872L58.7931 58.8271L57.6896 57.987L56.8621 57.0069L56.5862 56.1668H56.3103L54.931 56.4468H52.8621V56.8669L52.7241 57.5669L52.4483 58.267L51.8965 59.1071L51.2069 59.9472L50.2414 60.6473L48.8621 61.0674H46.931L45.5517 60.6473Z" fill="#B50024"/>
<path d="M57.5518 52.1063L57.8277 52.5263L58.2415 53.3664V53.7865V54.4866L57.9656 55.1866L57.0001 56.0267L55.8966 56.4468H54.5173H53.2759L52.7242 56.0267L52.1725 55.6067L51.3449 54.7666L51.207 54.0665V53.2264L51.3449 52.9464L51.6208 52.5263V53.0864L51.8966 53.7865L52.5863 54.4866L53.138 54.9066L53.8277 55.1866H55.069H56.0346L57.0001 54.8297L57.5518 54.2065L57.9656 53.6465L57.8277 52.5263L57.5518 52.1063L57.2759 51.8262L56.8621 51.5462L56.4483 51.4062H55.8966L55.4828 51.9663L55.6208 52.6663L55.7587 53.2264V53.7865V54.4866L55.4828 53.7865L55.069 52.9464L54.5173 52.2463L54.6552 52.1063L55.069 51.8262L55.4828 51.5462L55.8966 51.4062H56.4483L56.8621 51.5462L57.2759 51.8262L57.5518 52.1063Z" fill="#B50024"/>
<path d="M37.1379 31.1037L36.1724 32.2238H35.8965L34.5172 31.8038H33.2758L32.4483 31.9438L31.7586 32.2238L30.931 32.6439L30.3793 33.0639L29.9655 33.764L29.8276 34.3241L29.6896 35.0242V35.8643L29.9655 36.9844L30.3793 37.9645L30.931 38.8046L31.7586 39.6447L32.4483 40.2048L33.2758 40.6249L34.1034 40.7649H34.931L35.6207 40.6249L36.3103 40.2048L36.1724 40.7649L36.0345 41.885L36.3103 42.7251L36.7241 43.8453L37.5517 45.1054L38.7931 46.3656L39.8965 47.3457L41.1379 48.0458L43.2069 48.7459L45.2758 49.0259H46.931L48.5862 49.1659H49.5517L50.2414 49.4459L50.931 49.726L52.1724 50.5661L53.1379 50.9861L54.3793 51.1261L55.7586 50.9861L57.1379 50.5661L58.6551 49.4459L59.3448 48.4658L59.6207 47.6257L59.7586 46.7856L59.8965 46.5056L60.4483 46.2255L61.5517 45.3854L62.7931 44.5453L63.8965 43.4252L64.4483 42.5851L65.8276 34.1841L65.1379 32.5039L64.5862 31.3837L63.4827 30.1236L62.6552 29.4235L61.4138 28.8634L60.5862 28.7234L60.3103 28.3033L59.3448 27.0432L58.1034 25.503L56.7241 23.5428L54.6552 23.4027L52.4483 23.5428L50.2414 23.8228L48.0345 24.2428L45.4138 25.223L42.931 26.6231L41.1379 27.7433L39.4827 29.0034L38.2414 30.1236L37.1379 31.1037Z" fill="#FBD4B2" stroke="black" stroke-opacity="0.6" stroke-width="0.5" stroke-linejoin="round"/>
<path d="M60.1724 46.5056L61.2758 45.9455L61.8276 45.6655L62.6552 44.8254L63.4827 43.8452L62.6552 44.4053L61.8276 45.1054L60.5862 45.6655C60.5862 45.6655 59.6631 46.0102 59.3448 46.5056C59.1863 46.7522 59.0689 47.2057 59.0689 47.2057L58.6552 48.0458C58.6552 48.0458 58.37 48.6779 58.1034 49.0259C57.8696 49.3311 57.4138 49.726 57.4138 49.726C57.4138 49.726 56.8685 50.2279 56.4483 50.4261C56.0926 50.5938 55.8698 50.6422 55.4827 50.7061C54.9511 50.7938 54.1034 50.7061 54.1034 50.7061L52.5862 50.4261L51.4827 49.4459L50.6552 48.7458C50.6552 48.7458 50.6152 48.6058 49.9655 48.3258C49.2758 48.2128 48.8719 48.3589 48.1724 48.3258C46.9243 48.2668 45 47.9057 45 47.9057L42.931 47.6257C42.931 47.6257 41.6035 47.2481 40.8621 46.7856C39.7258 46.0769 39.2483 45.3975 38.5172 44.2653C38.2132 43.7945 37.8276 43.0051 37.8276 43.0051C37.8276 43.0051 37.1806 42.0353 37 41.3249C36.7846 40.4778 37 39.0847 37 39.0847L36.7241 39.3647L35.7586 39.9248L34.3793 40.2048L33 39.9248L31.7586 39.3647L30.931 38.2446L30.3793 36.9844L29.9655 35.5842V34.1841L29.6896 35.1642V35.8643L29.9655 36.9844L30.3793 37.9645L31.0689 38.9446L31.4827 39.3647L32.1724 39.9248L33 40.4848L33.9655 40.7649H34.931L35.7586 40.4848L36.3103 40.2048L36.1724 41.3249V42.165L36.4483 43.0051L37 44.2653L37.6896 45.2454L39.0689 46.6456L40.1724 47.6257L41.2758 48.3258L42.931 49.0259L45 49.3059H46.6552L48.3103 49.4459H49.2758L49.9655 49.726L50.6552 50.006L51.8965 50.8461L52.862 51.2662L54.1034 51.4062L55.4827 51.2662L56.862 50.8461L58.3793 49.726L59.0689 48.7458C59.0689 48.7458 59.373 48.3445 59.4827 48.0458C59.5972 47.7341 59.6207 47.2057 59.6207 47.2057L59.7586 46.7856L60.1724 46.5056Z" fill="#F2A77F"/>
<path d="M37 33.0639L36.0345 32.3638L37 31.1037L37.9655 30.2636L39.069 29.4235L41.6897 27.3232L41.8276 27.6033V28.7234V29.4235V30.5436L41.6897 30.9637L41.4138 31.6638L41.1379 32.3638V33.0639V33.624L41.2759 34.1841L42.931 35.8643L43.3448 36.2843V36.5644L42.931 37.1244L42.2414 37.8245L41.5517 38.3846L40.5862 39.3647L39.8966 39.9248L39.4828 40.7649V39.9248L39.2069 38.2446L38.5172 36.1443L38.1035 35.0242L37.6897 34.0441L37 33.0639Z" fill="#5F3622" stroke="black" stroke-opacity="0.6" stroke-width="0.5" stroke-linejoin="round"/>
<path d="M51.207 37.5445V36.2843L51.6208 36.9844L52.3104 37.2644C52.3104 37.2644 52.9861 37.3171 53.4139 37.2644C53.8548 37.2102 54.0775 37.0474 54.5173 36.9844C55.104 36.9004 56.0346 36.9844 56.0346 36.9844C56.0346 36.9844 57.3729 37.2581 58.2415 37.2644C59.1635 37.2712 60.5863 36.9844 60.5863 36.9844C60.5863 36.9844 61.3136 36.6312 61.6897 36.2843C62.0884 35.9166 62.2953 35.6624 62.5173 35.1642C62.7004 34.7534 62.6552 34.4641 62.6552 34.4641L62.7932 35.1642C62.7932 35.1642 62.8156 35.8638 62.6552 36.2843C62.3748 37.0197 62.3167 37.2188 61.6897 37.6845C61.1809 38.0624 60.7916 38.4036 60.1725 38.5246C59.432 38.6693 58.2415 38.8046 58.2415 38.8046C58.2415 38.8046 57.0399 38.569 56.1725 38.5246C55.5807 38.4943 55.2211 38.3461 54.6552 38.5246C54.17 38.6777 53.4139 38.9446 53.4139 38.9446C53.4139 38.9446 53.0755 39.2552 52.8621 39.2247C52.313 39.1462 51.6208 38.3846 51.6208 38.3846L51.207 37.5445Z" fill="#F1A784"/>
<path d="M37 33.0639L36.0345 32.3638L37 31.1037L37.4138 30.6836V30.9637L37.1379 31.8038L37 32.3638L37.5517 32.6439L38.2414 32.9239L38.7931 33.904L39.069 34.8842L39.2069 35.5842L39.6207 36.8444L39.8966 37.4045L40.3103 38.1045L40.7241 38.3846L41.1379 38.9447L40.5862 39.3647L39.8966 39.9248L39.4828 40.7649V39.9248L39.2069 38.2446L38.5172 36.1443L38.1035 35.0242L37.6897 34.0441L37 33.0639Z" fill="#391E13"/>
<path d="M44.4483 29.1435L44.1724 30.1236L44.0345 29.2835L44.3103 28.4434L44.7241 27.6033L45.2759 26.7632L45.9655 26.0631L46.5172 25.643L47.2069 25.363H47.7586L48.1724 25.503L48.3103 25.9231L48.1724 26.2031L47.6207 26.3431L46.7931 26.7632L45.9655 27.4632L45.1379 28.4434L44.4483 29.1435Z" fill="#5A3428"/>
<path d="M51.6207 25.643H52.0345H53.2759H54.2414L55.3448 25.783L56.1724 25.9231L57 26.3431L56.7241 26.0631L56.1724 25.503L55.4828 25.083L54.7931 24.8029L53.9655 24.6629L53 24.5229H52.0345L51.4828 24.6629L51.3448 24.8029V25.223V25.503L51.6207 25.643Z" fill="#5A3428"/>
<path d="M44.4483 29.1435L44.1724 30.1236L44.0345 29.2835L44.3103 28.4434L44.7241 27.6033L45.2759 26.7632L45.9655 26.0631L46.5172 25.643L47.2069 25.363H47.7586L48.1724 25.503L48.3103 25.9231L48.1724 26.2031L47.6207 26.3431L46.7931 26.7632L45.9655 27.4632L45.1379 28.4434L44.4483 29.1435Z" stroke="black" stroke-opacity="0.6" stroke-width="0.5" stroke-linejoin="round"/>
<path d="M51.6207 25.643H52.0345H53.2759H54.2414L55.3448 25.783L56.1724 25.9231L57 26.3431L56.7241 26.0631L56.1724 25.503L55.4828 25.083L54.7931 24.8029L53.9655 24.6629L53 24.5229H52.0345L51.4828 24.6629L51.3448 24.8029V25.223V25.503L51.6207 25.643Z" stroke="black" stroke-opacity="0.6" stroke-width="0.5" stroke-linejoin="round"/>
<path d="M48.1724 37.4045L48.8621 37.2644L47.7586 37.1244H47.069L46.3793 37.4045L45.8276 37.8245L45.4138 38.2446L45 38.9446L44.8621 39.6447V40.2048V41.1849L45.1379 42.025L45.5517 42.8651L46.1034 43.5652L47.069 44.2653L48.1724 44.8254L49.4138 45.2454L50.6552 45.3854H52.1724L53.2759 45.2454L54.931 44.8254L56.1724 44.2653L56.8621 43.7052L57.6896 42.8651L58.3793 43.1452L59.2069 43.5652L60.1724 43.9853L61 44.1253H62.1034L63.069 43.9853L63.8965 43.8452L64.5862 43.5652L65.2759 43.2852L65.8276 42.8651L66.3793 42.4451L66.931 41.745L67.4827 41.0449L67.8965 40.2048L68.0345 39.5047L68.1724 38.9446V38.3846L68.0345 37.6845L67.8965 36.9844L67.4827 36.2843L66.931 35.5842L66.3793 35.1642L65.6896 34.8841H65.2759L64.7241 35.1642H65L65.2759 35.3042L65.5517 35.5842L65.8276 35.8643L65.9655 36.1443V36.5644V36.9844L65.8276 37.4045L65.5517 37.8245L65.2759 38.1045L64.8621 38.3846L64.4483 38.5246H63.8965H63.069L62.5172 38.3846L62.1034 38.1045L61.8276 37.8245H61.5517L61.1379 38.1045L60.7241 38.3846L60.0345 38.5246L59.2069 38.6646L58.5172 38.8046L57.9655 38.6646L57.2759 38.5246L55.8965 38.3846H55.069L53.9655 38.5246L53.2759 38.8046L52.5862 39.0847L52.1724 39.6447L51.7586 40.0648L51.069 40.6249L50.3793 40.9049L49.4138 41.0449H48.8621L48.3103 40.9049L47.8965 40.6249L47.3448 40.2048L47.069 39.6447L46.931 39.0847L47.069 38.3846L47.2069 37.9645L47.6207 37.5445L48.1724 37.4045Z" fill="#5F3726" stroke="black" stroke-opacity="0.6" stroke-width="0.5" stroke-linejoin="round"/>
<path d="M65.2759 43.2852L65.8276 42.8651L65 43.0052L64.0345 43.2852H62.6552H61.2759L60.0345 43.0052L58.931 42.4451L58.1034 42.165L58.3793 41.465L58.6552 40.4848V39.5047H59.3448L60.0345 39.3647L60.5862 39.2247L61.2759 38.8046L61.5517 38.2446L61.6287 37.8493L60.6632 38.4093L60.0345 38.6646L58.5172 38.8046L57.5517 38.6646L56.7241 38.5246L55.4827 38.3846L54.2414 38.5246L53.1379 38.9447L54.2414 39.2247L55.2069 39.3647L56.0345 39.5047L56.7241 39.6447L57.9655 39.7848V40.3448L57.5517 41.1849L57 42.165L56.1724 43.1452L55.2069 43.9853L53.9655 44.5453L52.7241 44.8254H51.2069H50.5172L49.2759 44.5453L48.0345 43.9853L47.069 43.2852L46.5172 42.7251L46.1034 42.025L45.6896 41.3249L45.4138 40.6249L45.1379 39.3647L44.8621 40.2048V40.9049L45.1379 42.025L45.5517 42.8651L46.1034 43.5652L47.069 44.2653L48.1724 44.8254L49.4138 45.2454L50.6552 45.3854L52.4483 45.5255L53.4138 45.3854L55.069 44.8254L55.7586 44.5453L56.1724 44.2653L57 43.7052L57.6896 42.8651L58.3793 43.2852L59.2069 43.5652L60.1724 43.9853L61 44.1253H62.1034L63.069 43.9853L63.8965 43.8453L64.5862 43.5652L65.2759 43.2852Z" fill="#3E1A15"/>
<g filter="url(#filter0_d_149_2324)">
<path d="M46.9311 34.4641L46.2414 34.6041L45.6897 33.624L45.4138 32.5039V31.6638L45.5517 30.2636L45.8276 29.1434L46.2414 28.3033L46.7931 27.7433L47.4828 27.4632H47.8966L48.5862 27.6033L49.138 28.3033L49.5517 28.8634L49.8276 29.7035L49.9655 30.5436V31.6638V32.5039L49.8276 33.2039L49.5517 33.904L49.4138 34.6041H49.138L47.8966 34.4641H46.9311Z" fill="#FEFFFD"/>
<path d="M54.7931 32.0838L55.3449 32.3638L55.4828 32.2238L56.0345 31.9438L56.5862 31.8038L57.2759 31.6638H57.8276H58.5173V31.5237L58.3793 30.5436L58.1035 29.8435L57.6897 29.0034L56.8621 28.0233L56.1724 27.3232L55.2069 26.7632L54.2414 26.4831H53.4138L52.8621 26.6231L52.4483 27.0432L52.1724 27.6033V28.5834L52.4483 29.2835L52.8621 30.1236L53.5517 31.1037L54.1035 31.6638L54.7931 32.0838Z" fill="#FEFFFD"/>
<path d="M46.9311 34.4641L46.2414 34.6041L45.6897 33.624L45.4138 32.5039V31.6638L45.5517 30.2636L45.8276 29.1434L46.2414 28.3033L46.7931 27.7433L47.4828 27.4632H47.8966L48.5862 27.6033L49.138 28.3033L49.5517 28.8634L49.8276 29.7035L49.9655 30.5436V31.6638V32.5039L49.8276 33.2039L49.5517 33.904L49.4138 34.6041H49.138L47.8966 34.4641H46.9311Z" stroke="black" stroke-opacity="0.6" stroke-width="0.5" stroke-linejoin="round"/>
<path d="M54.7931 32.0838L55.3449 32.3638L55.4828 32.2238L56.0345 31.9438L56.5862 31.8038L57.2759 31.6638H57.8276H58.5173V31.5237L58.3793 30.5436L58.1035 29.8435L57.6897 29.0034L56.8621 28.0233L56.1724 27.3232L55.2069 26.7632L54.2414 26.4831H53.4138L52.8621 26.6231L52.4483 27.0432L52.1724 27.6033V28.5834L52.4483 29.2835L52.8621 30.1236L53.5517 31.1037L54.1035 31.6638L54.7931 32.0838Z" stroke="black" stroke-opacity="0.6" stroke-width="0.5" stroke-linejoin="round"/>
</g>
<path d="M32.4482 35.3042L32.862 34.8841L33.4138 34.7441H34.3793L35.4827 35.0242L36.0344 35.4442L36.7241 36.1443L37 36.9844L36.862 37.9645L36.4482 38.3846C36.3103 38.3846 36.0069 38.3846 35.8965 38.3846C35.7862 38.3846 35.5747 38.1045 35.4827 37.9645L35.3448 37.5445V37.1244L35.4827 36.7044L35.7586 36.2843H36.1724L36.5862 36.4243L36.7241 36.8444V37.6845L36.5862 38.1045L36.1724 38.6646L35.6207 38.8046H35.0689L34.5172 38.5246L34.1034 37.9645L33.9655 37.5445L33.8276 36.9844L33.9655 36.4243L34.2413 36.0043L34.3793 35.7242M46.3793 34.6041L46.931 34.4641L47.7586 34.3241H48.862L49.6896 34.4641L50.6551 34.7441L51.4827 35.1642L51.7586 35.3042M51.7586 35.3042L51.4827 35.7242L51.2069 36.1443L51.0689 36.7044V37.2644L51.2069 37.8245L51.6207 38.3846L52.0344 38.6646L52.3103 38.9446L52.7241 39.0847L53.2758 38.8046H53.6896L54.2413 38.5246L54.7931 38.3846H55.3448C55.5287 38.3846 55.9241 38.3846 56.0344 38.3846C56.1448 38.3846 56.7241 38.4779 57 38.5246L58.2413 38.6646H58.7931L60.4482 38.5246L61.2758 37.9645L61.9655 37.4045L62.3793 36.9844L62.6551 36.2843L62.7931 35.4442V34.8841L62.6551 34.1841L62.2413 33.344L61.5517 32.5039L60.862 32.0838L60.0344 31.8038L58.931 31.5237H58.2413L57.2758 31.6638L56.5862 31.8038L56.0344 32.0838L55.3448 32.3638M51.7586 35.3042L52.1724 35.1642L52.5862 35.0242L53 34.8841L53.5517 34.7441H54.1034L54.6551 34.8841L55.4827 35.1642L56.0344 35.4442L56.3103 35.5842M54.2413 49.4459L54.7931 49.5859L55.4827 49.726L56.1724 49.5859L56.5862 49.4459L56.862 49.1659L57.2758 48.8859" stroke="black" stroke-opacity="0.6" stroke-width="0.5" stroke-linejoin="round"/>
<path d="M37.8277 30.6836L36.3105 32.5039L35.8967 31.3837L35.6208 30.5436L35.345 28.8634L35.207 27.6033L35.0691 27.3232L34.7932 27.0432L33.5519 27.8833L32.5863 28.1633L31.207 28.3034H29.0001L27.8967 28.0233L26.6553 27.4632L25.8277 26.9032L25.0001 26.2031L24.1725 25.083L23.6208 24.1028L23.345 23.1227L23.0691 22.0026L23.207 20.7424L23.345 19.7623L23.6208 19.0622L23.8967 18.3621L24.3105 17.662L25.0001 16.8219L25.6898 15.9818L26.5174 15.2818L27.345 14.7217L28.1725 14.1616L29.0001 13.7416L30.2415 13.1815L30.9312 13.0415L32.3105 12.7614L34.3794 12.3414L34.9312 12.2014L36.0346 11.7813L36.7243 11.3613L37.276 11.0812L38.1036 10.3812L38.6553 9.68107L39.6208 8.42091L40.4484 7.30077L41.4139 6.18064L42.2415 5.34053L43.0691 4.36041L44.1725 3.66033L45.276 2.96024L46.3794 2.26015L47.6208 1.8401L49.0001 1.42005L50.7932 1.14002L52.1725 1H53.276L54.3794 1.14002L55.6208 1.56007L56.8622 2.26015L58.1036 3.24027L58.9312 4.2204L59.7588 6.04062L60.0346 6.88072L60.3105 8.00086V9.26101V10.1011V11.3613L60.1725 12.2014L59.8967 13.3215L59.6208 14.1616L58.9312 15.2818L58.3794 16.1219L57.8277 16.6819L57.1381 17.382L56.0346 17.9421L54.9312 18.3621L53.5519 18.7822L53.8277 19.2022L54.6553 20.3224L55.207 21.1625L56.5863 23.5428V23.8228H54.2415H51.8967L49.8277 24.0699L49.5519 24.1028L46.5174 25.083L43.4829 26.6231L42.9967 26.9316L41.276 28.0233L39.6208 29.1435L38.3794 30.2097L37.8277 30.6836Z" fill="white"/>
<path d="M37.8277 30.6836L36.3105 32.5039L35.8967 31.3837L35.6208 30.5436L35.345 28.8634L35.207 27.6033L35.0691 27.3232L34.7932 27.0432M37.8277 30.6836L37.5519 30.4036L37.276 29.8435L37.1381 29.1435M37.8277 30.6836L38.3794 30.2097M54.2415 23.8228H51.8967L49.8277 24.0699M54.2415 23.8228H56.5863V23.5428L55.207 21.1625L54.6553 20.3224L53.8277 19.2022L53.5519 18.7822M54.2415 23.8228L53.9656 23.2627L53.5519 22.5626L52.8622 21.1625L52.1725 19.7623M53.5519 18.7822L54.9312 18.3621L56.0346 17.9421L57.1381 17.382L57.8277 16.6819L58.3794 16.1219L58.9312 15.2818L59.6208 14.1616L59.8967 13.3215L60.1725 12.2014L60.3105 11.3613V10.1011V9.26101V8.00086L60.0346 6.88072L59.7588 6.04062L58.9312 4.2204L58.1036 3.24027L56.8622 2.26015L55.6208 1.56007L54.3794 1.14002L53.276 1H52.1725L50.7932 1.14002L49.0001 1.42005L47.6208 1.8401L46.3794 2.26015L45.276 2.96024L44.1725 3.66033L43.0691 4.36041L42.2415 5.34053L41.4139 6.18064L40.4484 7.30077L39.6208 8.42091L38.6553 9.68107L38.1036 10.3812M53.5519 18.7822H52.5863H50.9312L48.3105 18.9222L47.207 19.2022L46.2415 19.7623L45.5519 20.3224M38.1036 10.3812L37.276 11.5013L36.0346 12.7614L34.6553 13.8816L33.4139 14.4416M38.1036 10.3812L37.276 11.0812L36.7243 11.3613L36.0346 11.7813L34.9312 12.2014L34.3794 12.3414L32.3105 12.7614L30.9312 13.0415L30.2415 13.1815L29.0001 13.7416L28.1725 14.1616L27.345 14.7217L26.5174 15.2818L25.6898 15.9818L25.0001 16.8219L24.3105 17.662L23.8967 18.3621L23.6208 19.0622L23.345 19.7623L23.207 20.7424L23.0691 22.0026L23.345 23.1227L23.6208 24.1028L24.1725 25.083L25.0001 26.2031L25.8277 26.9032L26.6553 27.4632L27.8967 28.0233L29.0001 28.3034H31.207L32.5863 28.1633L33.5519 27.8833L34.7932 27.0432M34.7932 27.0432L35.7587 26.0631L36.8622 24.6629L37.9656 23.2627L38.6553 22.4226M38.3794 30.2097L39.6208 29.1435L41.276 28.0233L42.9967 26.9316M38.3794 30.2097L37.9656 29.8435L37.6898 29.2835L37.5519 28.7234L37.4139 28.1633L37.276 27.3232V26.9032M42.9967 26.9316L43.4829 26.6231L46.5174 25.083L49.5519 24.1028L49.8277 24.0699M42.9967 26.9316L42.6553 26.4831L42.3794 25.783L42.1036 24.9429L41.9656 24.3829L41.8277 23.8228L41.6898 23.4027M48.5863 21.3025L49.0001 22.1426L49.4139 22.8427L49.6898 23.5428L49.8277 24.0699" stroke="black" stroke-opacity="0.6" stroke-width="0.5" stroke-linejoin="round"/>
<path d="M3.62069 44.8254L4.86207 44.1253L4.72414 44.5453L3.89655 45.1054L3.2069 45.6655L2.51724 46.2255L1.96552 46.9256L1.82759 47.9057V48.8859L2.24138 49.586L2.93103 50.4261L4.17241 51.4062L6.37931 52.3863L7.89655 53.0864L10.5172 53.7865L12.7241 54.2065L14.5172 54.4866L16.8621 54.7666L18.5172 54.9066H20.1724H22.1035L23.8966 54.7666L25.5517 54.6266L27.2069 54.3465L28.7241 54.0665L30.3793 53.5064L31.7586 53.0864L33.1379 52.2463L33.9655 51.6862L34.6552 51.1261L35.069 50.5661L35.2069 49.586L34.931 48.6058L34.5172 47.7657L33.4138 46.6456L32.4483 45.9455V45.5255L32.8621 45.6655L33.6897 46.2255L34.3793 46.7856L35.069 47.4857L35.6207 48.1858L36.0345 49.3059V50.5661L35.6207 51.6862L34.6552 52.5263L33.6897 53.3664L32.0345 54.2065L30.5172 54.7666L28.5862 55.1866L26.7931 55.6067L24.8621 55.8867L22.1035 56.0267H19.8966H17.2759L14.6552 55.6067L12.1724 55.3267L9.41379 54.6266L6.7931 53.7865L4.72414 52.9464L2.93103 51.8262L1.55172 50.5661L1 49.1659V47.7657L1.41379 46.7856L2.51724 45.6655L3.62069 44.8254Z" fill="#B3BCC1" stroke="black" stroke-opacity="0.6" stroke-width="0.5" stroke-linejoin="round"/>
<path d="M33.4138 46.5056L32.3104 45.9455L32.5863 46.6456L32.7242 47.4857V48.0458V49.0259L32.0345 49.866L30.2414 51.1262L28.7242 51.6862L26.7932 52.1063L24.4483 52.3863H23.7587H22.1035H20.5863H18.5173L16.8621 52.2463L15.069 51.9663L13.6897 51.8262L12.3104 51.5462L10.2414 50.9861L8.86212 50.5661L7.75867 50.006L6.1035 49.3059L5.13798 48.4658L4.72419 47.3457C4.67821 46.9723 4.58626 46.1975 4.58626 46.0855C4.58626 45.9735 4.67821 45.4788 4.72419 45.2454V44.4053L3.8966 44.9654L3.20695 45.5255L2.51729 46.0855L1.96557 46.7856L1.82764 47.7657V48.7459L2.24143 49.4459L2.93108 50.286L4.17246 51.2662L6.37936 52.2463L7.8966 52.9464L10.5173 53.6465L12.7242 54.0665L14.5173 54.3465L16.8621 54.6266L18.5173 54.7666H20.1725H22.1035L23.8966 54.6266H25.5518L27.2069 54.3465L28.8621 54.0665L30.5173 53.5064L31.7587 53.0864L33.2759 52.2463L34.2414 51.4062L34.7932 50.9861L35.069 50.4261L35.2069 49.4459L34.9311 48.4658L34.5173 47.6257L33.4138 46.5056Z" fill="#647074"/>
<path d="M23.8966 54.7666L25.5049 54.6305L21.8276 54.4866L19.2069 54.3465L14.7932 54.0665C14.7932 54.0665 12.9201 53.8304 11.7587 53.5064C10.8223 53.2453 9.41384 52.6663 9.41384 52.6663L6.79315 51.5462L5.13798 50.5661C5.13798 50.5661 4.18393 49.9973 3.75867 49.4459C3.49095 49.0988 3.31053 48.8939 3.20695 48.4658C3.11701 48.0941 3.14349 47.863 3.20695 47.4857C3.26428 47.1448 3.48281 46.6456 3.48281 46.6456L3.75867 46.0855L4.72419 44.4053L3.8966 44.9654C3.62074 45.1521 3.04143 45.6655 2.93108 45.6655L2.37936 46.2256L1.96557 46.7856L1.82764 47.4857V47.9058V48.8859L2.24143 49.586L2.93108 50.4261L4.17246 51.4062L6.37936 52.3863L7.8966 53.0864L10.5173 53.7865L12.7242 54.2065L14.5173 54.4866L16.8621 54.7666L18.5173 54.9066H20.1725H22.1035L23.8966 54.7666Z" fill="#464E50"/>
<g style="mix-blend-mode:multiply">
<path d="M37.8277 30.6836L36.3105 32.5039L35.8967 31.3837L35.6208 30.5436L35.345 28.8634L35.207 27.6033L35.0691 27.3232L34.7932 27.0432L33.5519 27.8833L32.5863 28.1633L31.207 28.3033H29.0001L27.8967 28.0233L26.6553 27.4632L25.8277 26.9032L25.0001 26.2031L24.1725 25.083L23.6208 24.1028L23.345 23.1227L23.0691 22.0026V20.6024L23.7587 22.0026L25.1381 23.5428L26.7932 24.6629L28.7243 25.783L30.5174 26.0631L33.5519 25.9231L35.7587 24.5229L37.4139 23.1227L38.6553 22.4226L37.9656 23.2627L37.8553 23.4027L37.5519 25.083L37.6898 26.9032L38.5174 28.1633L39.8967 28.9568L41.276 28.0233L42.9967 26.9316L43.4829 26.6231L46.5174 25.083L49.5519 24.1028L49.8277 24.0699L51.8967 23.8228H54.2415H56.5863V23.5428L55.207 21.1625L54.6553 20.3224L54.2879 19.8251L53.6898 19.9023L52.4484 19.7623L51.345 19.4823L50.2415 19.3422L49.1381 19.2022H48.1725H47.207L46.2415 19.7623L45.5519 20.3224L45.9656 19.3422L46.7932 18.5021L48.3105 17.662L49.9656 17.102L51.8967 16.6819L53.8277 16.1219L55.345 15.2818L56.7243 14.1616L58.2415 12.4814L58.9312 11.3613L59.6208 10.1011L59.8967 8.98098L60.3105 8.00086V9.26101V10.1011V11.3613L60.1725 12.2014L59.8967 13.3215L59.6208 14.1616L58.9312 15.2818L58.3794 16.1219L57.8277 16.6819L57.1381 17.382L56.0346 17.9421L54.9312 18.3621L53.5519 18.7822L53.8277 19.2022L54.2879 19.8251L54.6553 20.3224L55.207 21.1625L56.5863 23.5428V23.8228H54.2415H51.8967L49.8277 24.0699L49.5519 24.1028L46.5174 25.083L43.4829 26.6231L42.9967 26.9316L41.276 28.0233L39.8967 28.9568L39.6208 29.1434L38.3794 30.2097L37.8277 30.6836Z" fill="#BED3D3"/>
</g>
<path d="M4.72411 45.1054V44.5453L5.5517 43.0052L6.65515 41.1849L8.72411 39.3647L9.96549 38.3846L11.3448 37.5445L12.862 36.9844L14.7931 36.5644L16.5862 36.2843L18.7931 36.1443L21.1379 36.2843L21.9655 36.5644L23.4827 36.9844L24.7241 37.4045L26.7931 38.6646L28.5862 39.9248L30.1034 41.3249L31.6207 43.5652L32.0345 44.6854L32.3103 45.9455L32.5862 46.6456L32.7241 48.0458V49.1659L32.0345 50.006L30.2414 51.2662L28.7241 51.8262L26.7931 52.2463L24.3103 52.5263H21H18.6551L16.0345 52.2463L13.1379 51.8262L11.2069 51.4062L9.27584 50.8461L8.03446 50.286L6.93101 49.866L6.10342 49.4459L5.13791 48.6058L4.72411 47.7657L4.58618 46.7856V45.9455L4.72411 45.1054Z" fill="#C1CCCE" stroke="black" stroke-opacity="0.6" stroke-width="0.5" stroke-linejoin="round"/>
<path d="M5.00011 45.1054V44.5453L5.8277 43.0052L6.93115 41.1849L9.00011 39.3647L10.2415 38.3846L11.6208 37.5445L13.138 36.9844L15.0691 36.5644L13.138 37.5445L11.6208 38.3846L10.5174 39.6447L9.13805 41.745L8.44839 43.1452L8.0346 45.1054L7.89667 46.6456V48.3258L8.44839 49.4459L9.55184 50.286L11.3449 51.3662L9.55184 50.8461L8.31046 50.286L7.20701 49.866L6.37942 49.4459L5.41391 48.6058L5.00011 47.7657L4.86218 46.7856V45.9455L5.00011 45.1054Z" fill="#9EA9A9"/>
<path d="M19.069 36.8444L18.931 36.5644L19.069 36.2843V36.0043L18.931 35.7242L18.6552 35.4442L18.4453 35.0242V34.7441L18.6552 34.3241L18.931 34.044L19.2069 33.904L19.8965 33.764L20.3103 33.904L20.7241 34.044L21.1379 34.3241L21.4138 34.7441V35.1642L21.2759 35.4442L21 35.7242L20.7241 35.8643L20.5862 36.1443V36.4243L20.7241 36.5644L20.5862 36.8444L20.4483 36.9844L20.1724 37.1244L19.8965 37.2644H19.6207L19.3448 37.1244L19.069 36.8444Z" fill="#97A7A9" stroke="black" stroke-opacity="0.6" stroke-width="0.5" stroke-linejoin="round"/>
<path d="M22.1035 37.1244L22.2414 36.7044L22.7932 36.9844L23.4828 37.6845L24.1725 38.6646L24.7242 39.9248L25.138 40.6248L25.5518 41.605L25.8277 43.0051L26.1035 44.4053L26.2414 45.8055L26.3794 47.3457V48.3258L26.2414 49.3059L26.1035 50.5661L25.8277 51.6862L25.6897 52.3863L23.207 52.5263V52.3863L23.3449 51.8262L23.6208 50.7061L23.7587 49.726L24.0345 47.7657V44.8254V43.0051L23.7587 41.465L23.4828 39.9248L23.069 38.6646L22.3794 37.6845L22.1035 37.1244Z" fill="#EBEFEE"/>
<path d="M24.5861 38.1045L23.8965 37.2644L24.862 37.5445L26.5172 38.5246L27.0689 39.0847L27.4827 39.9248L28.1723 40.9049L28.9999 42.5851L29.5517 43.9853L29.9654 45.5255L30.1034 46.3656L30.2413 48.0458L30.1034 49.0259L29.9654 50.286L29.8275 50.9861L29.5517 51.5462L26.5172 52.2463V51.9662L26.793 51.1261L27.2068 49.1659V46.2255L26.931 44.2653L26.5172 42.5851L26.1034 41.0449L25.1379 39.0847L24.5861 38.1045Z" fill="#EBEFEE"/>
<path d="M46.6552 33.484L47.069 33.904L47.4828 34.0441L48.0345 33.904L48.4483 33.624L48.8621 33.0639L49 32.2238V31.5237V30.8237L48.8621 30.1236L48.5862 29.5635L48.1724 29.1435L47.6207 29.0034L47.2069 29.1435L46.931 29.4235L46.5173 29.8435L46.3793 30.5436L46.2414 31.2437V31.8038V32.5039L46.3793 33.0639L46.6552 33.484Z" fill="#9E6110"/>
<path d="M56.4483 31.9438H56.0345H55.8966L55.069 31.3837L54.5173 30.8237L54.1035 30.2636L53.8276 29.5635L53.6897 29.0034L53.8276 28.4434L54.1035 28.0233L54.5173 27.8833H55.069L55.4828 28.0233L55.8966 28.3033L56.3104 28.5834L57 29.2835L57.4138 29.8435L57.6897 30.4036V30.9637V31.3837L57.5517 31.5237H57.2759L56.8621 31.6638L56.4483 31.9438Z" fill="#9E6110"/>
<path d="M46.6552 33.484L47.069 33.904L47.4828 34.0441L48.0345 33.904L48.4483 33.624L48.8621 33.0639L49 32.2238V31.5237V30.8237L48.8621 30.1236L48.5862 29.5635L48.1724 29.1435L47.6207 29.0034L47.2069 29.1435L46.931 29.4235L46.5173 29.8435L46.3793 30.5436L46.2414 31.2437V31.8038V32.5039L46.3793 33.0639L46.6552 33.484Z" stroke="black" stroke-opacity="0.6" stroke-width="0.5" stroke-linejoin="round"/>
<path d="M56.4483 31.9438H56.0345H55.8966L55.069 31.3837L54.5173 30.8237L54.1035 30.2636L53.8276 29.5635L53.6897 29.0034L53.8276 28.4434L54.1035 28.0233L54.5173 27.8833H55.069L55.4828 28.0233L55.8966 28.3033L56.3104 28.5834L57 29.2835L57.4138 29.8435L57.6897 30.4036V30.9637V31.3837L57.5517 31.5237H57.2759L56.8621 31.6638L56.4483 31.9438Z" stroke="black" stroke-opacity="0.6" stroke-width="0.5" stroke-linejoin="round"/>
<path d="M47.7586 32.9239L47.3448 33.2039L47.069 33.0639L46.931 32.6439L46.7931 32.3638V31.9438V31.5237L46.931 31.1037L47.2069 30.9637H47.4827L47.7586 31.1037L47.8965 31.3837L48.0345 31.8038V32.2238L47.8965 32.6439L47.7586 32.9239Z" fill="#211605"/>
<path d="M55.3448 30.6836L55.069 30.4036L54.931 30.2636V29.8435L55.069 29.5635H55.3448L55.7586 29.7035L56.1724 29.8435L56.4483 30.1236L56.5862 30.5436L56.7241 30.8237L56.5862 31.1037L56.4483 31.2437H56.1724H55.8965L55.6207 30.9637L55.3448 30.6836Z" fill="#211605"/>
<path d="M47.7586 32.9239L47.3448 33.2039L47.069 33.0639L46.931 32.6439L46.7931 32.3638V31.9438V31.5237L46.931 31.1037L47.2069 30.9637H47.4827L47.7586 31.1037L47.8965 31.3837L48.0345 31.8038V32.2238L47.8965 32.6439L47.7586 32.9239Z" stroke="black" stroke-opacity="0.6" stroke-width="0.5" stroke-linejoin="round"/>
<path d="M55.3448 30.6836L55.069 30.4036L54.931 30.2636V29.8435L55.069 29.5635H55.3448L55.7586 29.7035L56.1724 29.8435L56.4483 30.1236L56.5862 30.5436L56.7241 30.8237L56.5862 31.1037L56.4483 31.2437H56.1724H55.8965L55.6207 30.9637L55.3448 30.6836Z" stroke="black" stroke-opacity="0.6" stroke-width="0.5" stroke-linejoin="round"/>
<path d="M51.4828 50.8461L51.069 50.4261L51.4828 50.5661L51.8966 50.8461L52.4483 51.1261L52.8621 51.2662L53.5517 51.4062H54.2414L55.069 51.2662L56.0345 51.1261L56.8621 50.8461L57.2759 50.5661L57.6897 50.286L58.3793 49.726L58.1035 50.286L57.9655 50.8461V51.5462V51.9662V52.3863L57.6897 52.5263L57.4138 52.1063L57 51.6862L56.3103 51.4062H55.7586L55.2069 51.5462L54.7931 51.8262L54.3793 52.2463L54.1035 52.1063L53.5517 51.8262H53H52.5862H52.1724L51.8966 51.4062L51.4828 50.8461Z" fill="#F1A37E" stroke="black" stroke-opacity="0.6" stroke-width="0.5" stroke-linejoin="round"/>
<path d="M51.6207 46.6456L50.6552 45.5255H51.7587H53L53.7587 45.3154L54.5173 45.1054L55.7587 44.6854L57 43.8453L57.6897 43.0051L58.1035 43.2852L59.069 43.7052L59.7587 43.9853L58.9311 45.2454L58.5173 46.2255L57.9656 47.2057L57.2759 47.9058L56.1725 48.3258H54.6552L53.5518 47.9058L52.4483 47.3457L51.6207 46.6456Z" fill="#F3514A"/>
<path d="M53.7587 45.3154L54.5173 45.1054L55.7587 44.6854L57 43.8453L57.6897 43.0051L58.1035 43.2852L59.069 43.7052L59.7587 43.9853L58.9311 45.2454L58.5173 46.2255L57.9656 47.2057L57.2759 47.9058L56.1725 48.3258H54.6552L53.5518 47.9058L52.4483 47.3457L51.6207 46.6456L50.6552 45.5255H51.7587H53L53.7587 45.3154ZM53.7587 45.3154L54.3794 45.5255L54.9311 45.6655L55.6207 46.0855L55.8966 46.5056L56.0345 46.9256" stroke="black" stroke-opacity="0.6" stroke-width="0.5" stroke-linejoin="round"/>
<path d="M58.931 45.2454L58.5172 46.2255L57.4138 45.8055L55.7586 45.6655L54.5172 45.5255L53.4138 45.3854L54.5172 45.1054L55.7586 44.6854L57 43.8453L57.6896 43.0051L58.1034 43.2852L59.0689 43.7052L59.7586 43.9853L58.931 45.2454Z" fill="#550500"/>
<g filter="url(#filter1_f_149_2324)">
<ellipse cx="47.4828" cy="30.8237" rx="0.413793" ry="0.420052" fill="white"/>
</g>
<g filter="url(#filter2_f_149_2324)">
<ellipse cx="55.3448" cy="29.5635" rx="0.275862" ry="0.280034" fill="white"/>
</g>
<path d="M38.931 47.4857V48.4658L39.4828 49.726L40.5862 50.7061L43.3448 51.8262L46.2414 52.6663L47.6207 52.9464" stroke="black" stroke-opacity="0.6" stroke-width="0.5" stroke-linejoin="round"/>
<defs>
<filter id="filter0_d_149_2324" x="44.1638" y="22.2331" width="15.6035" height="12.621" filterUnits="userSpaceOnUse" color-interpolation-filters="sRGB">
<feFlood flood-opacity="0" result="BackgroundImageFix"/>
<feColorMatrix in="SourceAlpha" type="matrix" values="0 0 0 0 0 0 0 0 0 0 0 0 0 0 0 0 0 0 127 0" result="hardAlpha"/>
<feOffset dy="-3"/>
<feGaussianBlur stdDeviation="0.5"/>
<feColorMatrix type="matrix" values="0 0 0 0 0.870588 0 0 0 0 0.678431 0 0 0 0 0.564706 0 0 0 1 0"/>
<feBlend mode="normal" in2="BackgroundImageFix" result="effect1_dropShadow_149_2324"/>
<feBlend mode="normal" in="SourceGraphic" in2="effect1_dropShadow_149_2324" result="shape"/>
</filter>
<filter id="filter1_f_149_2324" x="46.569" y="29.9036" width="1.82758" height="1.8401" filterUnits="userSpaceOnUse" color-interpolation-filters="sRGB">
<feFlood flood-opacity="0" result="BackgroundImageFix"/>
<feBlend mode="normal" in="SourceGraphic" in2="BackgroundImageFix" result="shape"/>
<feGaussianBlur stdDeviation="0.25" result="effect1_foregroundBlur_149_2324"/>
</filter>
<filter id="filter2_f_149_2324" x="54.569" y="28.7835" width="1.5517" height="1.56007" filterUnits="userSpaceOnUse" color-interpolation-filters="sRGB">
<feFlood flood-opacity="0" result="BackgroundImageFix"/>
<feBlend mode="normal" in="SourceGraphic" in2="BackgroundImageFix" result="shape"/>
<feGaussianBlur stdDeviation="0.25" result="effect1_foregroundBlur_149_2324"/>
</filter>
</defs>
</svg>
