<svg width="289" height="240" viewBox="0 0 289 240" fill="none" xmlns="http://www.w3.org/2000/svg">
<path d="M42.3176 217.684C98.7576 247.165 190.224 247.165 246.65 217.684C303.077 188.202 303.09 140.421 246.65 110.939C190.21 81.4573 98.7443 81.464 42.3176 110.939C-14.1092 140.414 -14.1025 188.209 42.3176 217.684Z" fill="#FAD1D9"/>
<path d="M25.5781 170.686H27.9552C29.0448 167.048 29.759 163.307 30.0867 159.524C30.6046 152.519 27.2116 141.795 20.9965 138.203C14.7815 134.611 11.415 139.053 13.5 142.851C15.5849 146.649 22.6167 157.452 22.7096 166.748L25.5781 170.686Z" fill="#DC143C"/>
<path d="M25.007 170.686H25.671C26.3198 166.098 26.3198 161.442 25.671 156.855C24.5954 147.764 21.6074 143.541 18.8318 140.606C18.7711 140.542 18.6873 140.505 18.5989 140.502C18.5105 140.5 18.4247 140.532 18.3604 140.593C18.2961 140.654 18.2586 140.738 18.2561 140.826C18.2536 140.915 18.2864 141 18.3471 141.065C21.0496 143.913 23.9579 148.03 24.9871 156.928C25.6449 161.49 25.6516 166.122 25.007 170.686Z" fill="white"/>
<path d="M25.7707 170.686C24.5489 164.922 18.9979 158.07 13.7589 156.888C7.6833 155.56 4.7285 158.767 5.59834 161.536C6.46818 164.305 11.2689 165.593 15.9302 167.764C17.4997 168.491 18.9345 169.479 20.1731 170.686H25.7707Z" fill="#DC143C"/>
<path d="M23.5596 170.686H24.27C21.7004 164.225 15.8572 159.617 11.0764 159.192C11.0331 159.187 10.9893 159.191 10.9477 159.204C10.906 159.217 10.8674 159.238 10.8339 159.265C10.8005 159.293 10.773 159.328 10.753 159.366C10.7331 159.405 10.7211 159.447 10.7178 159.491C10.7123 159.534 10.7157 159.578 10.728 159.62C10.7403 159.662 10.7611 159.701 10.7891 159.735C10.8171 159.769 10.8518 159.796 10.891 159.816C10.9301 159.835 10.9729 159.847 11.0166 159.849C15.5318 160.254 21.0496 164.584 23.5596 170.686Z" fill="white"/>
<path d="M240.117 109.936L245.09 112.546L245.508 109.432C243.045 102.486 245.07 94.6112 247.733 91.331C250.395 88.0509 249.884 85.6406 248.921 84.5649C247.958 83.4892 244.306 82.6725 240.694 86.8955C237.082 91.1186 236.252 96.2446 236.856 101.417C237.241 104.651 238.941 107.971 240.117 109.936Z" fill="#E84C4F"/>
<path opacity="0.2" d="M240.117 109.936L245.09 112.546L245.508 109.432C243.045 102.486 245.07 94.6112 247.733 91.331C250.395 88.0509 249.884 85.6406 248.921 84.5649C247.958 83.4892 244.306 82.6725 240.694 86.8955C237.082 91.1186 236.252 96.2446 236.856 101.417C237.241 104.651 238.941 107.971 240.117 109.936Z" fill="#DC143C"/>
<path d="M242.168 111.012L243.151 111.53C243.141 111.511 243.13 111.494 243.118 111.477C241.71 109.804 239.891 101.61 240.654 96.8091C241.597 90.8795 244.638 87.0084 247.241 85.3683C247.273 85.3487 247.301 85.3229 247.322 85.2924C247.344 85.2619 247.359 85.2273 247.367 85.1908C247.375 85.1542 247.376 85.1164 247.369 85.0796C247.362 85.0428 247.348 85.0078 247.327 84.9766C247.285 84.9131 247.22 84.8686 247.146 84.8525C247.071 84.8363 246.994 84.8499 246.929 84.8903C244.273 86.5967 241.059 90.6007 240.083 96.7227C239.379 101.191 240.787 108.27 242.168 111.012Z" fill="white"/>
<path d="M245.189 98.084C246.644 101.65 246.637 103.396 244.267 103.761C242.128 104.08 239.532 106.676 241.943 110.893L256.046 118.289C256.081 117.501 256.276 116.728 256.619 116.017C256.961 115.306 257.444 114.672 258.038 114.153C260.355 111.835 262.493 110.089 262.161 107.513C261.829 104.936 259.592 102.453 259.22 100.209C258.848 97.9644 259.99 96.6829 262.427 94.1664C264.864 91.6498 267.075 87.7455 263.821 85.966C260.568 84.1864 256.843 87.2342 255.289 89.286C253.735 91.3377 252.314 92.2408 249.253 92.0681C246.192 91.8955 243.735 94.5183 245.189 98.084Z" fill="#FABDC9"/>
<path d="M249.18 114.691C249.114 103.748 256.956 90.9326 261.318 88.343C261.382 88.3019 261.429 88.2377 261.447 88.1636C261.466 88.0895 261.455 88.0112 261.418 87.9446C261.378 87.8807 261.315 87.8347 261.242 87.8161C261.169 87.7976 261.091 87.8079 261.026 87.845C256.604 90.501 248.695 103.323 248.609 114.405L249.18 114.691Z" fill="white"/>
<path d="M251.278 103.316C251.218 103.33 251.156 103.323 251.1 103.296C251.045 103.27 251 103.225 250.973 103.17C249.706 100.807 248.64 98.3414 247.786 95.7998C247.774 95.764 247.77 95.7264 247.773 95.689C247.777 95.6517 247.787 95.6153 247.804 95.582C247.822 95.5487 247.845 95.5191 247.874 95.495C247.903 95.4708 247.936 95.4525 247.972 95.4412C248.007 95.4299 248.045 95.4257 248.082 95.4289C248.12 95.4321 248.156 95.4427 248.189 95.4599C248.223 95.4772 248.252 95.5008 248.276 95.5295C248.301 95.5582 248.319 95.5914 248.33 95.6271C249.177 98.1336 250.229 100.565 251.478 102.898C251.513 102.966 251.52 103.045 251.498 103.118C251.476 103.192 251.425 103.253 251.358 103.29L251.278 103.316Z" fill="white"/>
<path d="M249.393 110.023C249.338 110.033 249.282 110.027 249.231 110.008C249.179 109.988 249.134 109.954 249.1 109.91C249.057 109.846 249.04 109.768 249.054 109.692C249.067 109.616 249.11 109.549 249.173 109.505C252.033 107.503 255.502 106.563 258.981 106.849C259.056 106.858 259.125 106.898 259.172 106.958C259.219 107.019 259.239 107.095 259.23 107.171C259.22 107.246 259.181 107.315 259.12 107.362C259.06 107.409 258.983 107.429 258.908 107.42C255.577 107.166 252.259 108.059 249.505 109.95C249.473 109.981 249.435 110.006 249.393 110.023Z" fill="white"/>
<path d="M20.5914 167.864L93.0604 209.696C93.9514 210.148 94.9364 210.383 95.9355 210.383C96.9346 210.383 97.9196 210.148 98.8106 209.696L257.593 118.064C259.18 117.147 259.18 115.66 257.593 114.744L185.124 72.9117C184.234 72.4566 183.249 72.2192 182.249 72.2192C181.249 72.2192 180.264 72.4566 179.374 72.9117L20.5914 164.544C19.0045 165.46 19.0045 166.947 20.5914 167.864Z" fill="#455A64"/>
<path d="M59.7608 187.286C60.9964 187.909 62.3609 188.234 63.7448 188.234C65.1287 188.234 66.4933 187.909 67.7288 187.286C69.9399 186.011 69.9399 183.966 67.7288 182.671C66.4942 182.044 65.1293 181.718 63.7448 181.718C62.3604 181.718 60.9954 182.044 59.7608 182.671C57.5497 183.966 57.5497 186.024 59.7608 187.286Z" fill="#263238"/>
<path d="M94.4216 209.696L21.9526 167.864C20.5317 167.04 20.3856 165.765 21.5078 164.849C20.799 165.41 20.2162 166.113 19.7975 166.914C19.3788 167.715 19.1335 168.595 19.0775 169.497V172.2C19.132 173.197 19.4207 174.168 19.9202 175.033C20.4197 175.898 21.116 176.634 21.9526 177.18L94.4216 219.012C95.3077 219.474 96.2974 219.703 97.2967 219.676V210.386C96.2951 210.405 95.3052 210.168 94.4216 209.696Z" fill="#37474F"/>
<path d="M257.586 127.373C258.425 126.828 259.123 126.094 259.624 125.228C260.125 124.363 260.414 123.391 260.468 122.393V119.69C260.414 118.787 260.169 117.906 259.749 117.105C259.329 116.303 258.743 115.6 258.031 115.042C259.16 115.959 259.014 117.234 257.593 118.05L98.8106 209.696C97.9239 210.157 96.9346 210.385 95.9355 210.36V219.702C96.9346 219.728 97.9239 219.499 98.8106 219.038L257.586 127.373Z" fill="#263238"/>
<path d="M104.999 201.031L35.6377 160.965C34.6815 160.414 34.6815 159.517 35.6377 158.973L169.713 81.5438C170.247 81.272 170.839 81.1304 171.439 81.1304C172.039 81.1304 172.63 81.272 173.165 81.5438L242.553 121.603C243.503 122.154 243.503 123.044 242.553 123.595L108.425 201.031C107.894 201.298 107.307 201.437 106.712 201.437C106.117 201.437 105.531 201.298 104.999 201.031Z" fill="white"/>
<path d="M77.0513 178.66L85.1455 173.986L82.4497 172.432L74.3555 177.1L77.0513 178.66Z" fill="#DC143C"/>
<path d="M174.155 122.599L182.249 117.924L179.546 116.371L171.459 121.045L174.155 122.599Z" fill="#DC143C"/>
<path d="M190.336 113.256L198.43 108.582L195.735 107.028L187.641 111.696L190.336 113.256Z" fill="#DC143C"/>
<path d="M216.312 96.8888C216.626 97.046 216.973 97.1278 217.325 97.1278C217.676 97.1278 218.023 97.046 218.337 96.8888C218.459 96.8471 218.565 96.7684 218.64 96.6636C218.715 96.5589 218.755 96.4333 218.755 96.3045C218.755 96.1757 218.715 96.0501 218.64 95.9453C218.565 95.8406 218.459 95.7618 218.337 95.7202C218.024 95.5599 217.677 95.4763 217.325 95.4763C216.973 95.4763 216.626 95.5599 216.312 95.7202C216.19 95.7618 216.084 95.8406 216.009 95.9453C215.935 96.0501 215.894 96.1757 215.894 96.3045C215.894 96.4333 215.935 96.5589 216.009 96.6636C216.084 96.7684 216.19 96.8471 216.312 96.8888Z" fill="#263238"/>
<path d="M219.546 106.059C220.172 106.376 220.865 106.541 221.568 106.541C222.27 106.541 222.963 106.376 223.59 106.059C224.705 105.395 224.705 104.365 223.59 103.721C222.963 103.404 222.27 103.239 221.568 103.239C220.865 103.239 220.172 103.404 219.546 103.721C218.43 104.365 218.43 105.415 219.546 106.059Z" fill="#263238"/>
<path d="M216.691 101.995C217.434 101.563 217.394 100.846 216.604 100.388L203.324 92.7056C202.897 92.4765 202.421 92.3522 201.936 92.343C201.451 92.3337 200.971 92.4398 200.535 92.6525C199.792 93.0841 199.832 93.8012 200.622 94.2594L213.942 101.942C214.364 102.164 214.833 102.284 215.31 102.294C215.787 102.303 216.26 102.201 216.691 101.995Z" fill="#263238"/>
<path d="M88.4456 173.202C95.1586 177.067 110.895 174.258 123.598 166.921L158.491 146.782C171.193 139.445 176.04 130.374 169.314 126.516C162.588 122.659 146.838 125.481 134.122 132.811L99.2954 152.924C86.5997 160.254 81.7392 169.358 88.4456 173.202Z" fill="#FADEDF"/>
<path d="M190.038 4.36697H190.071L195.814 1.04697H195.861C199.48 -0.785671 204.314 -0.281027 209.519 3.10537C219.984 9.83833 227.972 25.3759 227.368 37.7994C227.062 43.9945 224.712 48.2441 221.08 50.1166H221.046L215.296 53.4366H215.256C211.637 55.2758 206.797 54.7646 201.585 51.3848C191.127 44.6452 183.139 29.1143 183.743 16.6908C184.062 10.4891 186.445 6.23945 190.038 4.36697Z" fill="#37474F"/>
<path d="M215.588 53.264L221.066 50.0768H221.106C224.705 48.1976 227.082 43.948 227.388 37.7596C227.653 32.2218 226.212 26.0665 223.609 20.3495L217.859 23.6695C220.469 29.3865 221.91 35.5418 221.637 41.0862C221.352 47.1286 219.068 51.3317 215.588 53.264Z" fill="#263238"/>
<path d="M201.611 51.3781C191.153 44.6385 183.165 29.1075 183.769 16.6841C184.374 4.26067 193.358 -0.354126 203.796 6.37883C214.234 13.1118 222.248 28.6494 221.644 41.0728C221.04 53.4963 212.069 58.1111 201.611 51.3781Z" fill="#455A64"/>
<path d="M210.376 50.5017C216.544 50.8005 217.547 43.8617 217.68 40.8737C218.211 29.9177 210.867 15.6417 201.644 9.69894C199.679 8.32239 197.392 7.47618 195.004 7.24214C188.842 6.94334 187.84 13.8821 187.7 16.8701C187.169 27.8261 194.506 42.1021 203.736 48.0781C205.701 49.4547 207.988 50.3009 210.376 50.5349V50.5017Z" fill="#FAFAFA"/>
<path d="M201.498 30.9336C201.571 30.9338 201.643 30.9203 201.711 30.8938C201.849 30.8488 201.969 30.7594 202.052 30.6394C202.135 30.5193 202.176 30.3754 202.169 30.2298V14.4067C202.169 14.2306 202.099 14.0617 201.974 13.9372C201.85 13.8126 201.681 13.7427 201.505 13.7427C201.329 13.7427 201.16 13.8126 201.035 13.9372C200.911 14.0617 200.841 14.2306 200.841 14.4067V28.3042L193.451 18.809C193.341 18.6681 193.181 18.5764 193.004 18.554C192.827 18.5315 192.649 18.5803 192.508 18.6895C192.367 18.7987 192.275 18.9593 192.253 19.1362C192.23 19.313 192.279 19.4915 192.388 19.6324L200.987 30.6747C201.047 30.7533 201.125 30.8173 201.213 30.8622C201.302 30.907 201.399 30.9314 201.498 30.9336Z" fill="#37474F"/>
<path d="M205.31 42.6399C205.34 42.646 205.372 42.646 205.403 42.6399C205.473 42.6184 205.532 42.5704 205.568 42.506C205.604 42.4417 205.614 42.3659 205.595 42.2947L201.87 29.7517C201.849 29.6804 201.8 29.6204 201.735 29.5849C201.67 29.5494 201.593 29.5413 201.521 29.5625C201.45 29.5836 201.39 29.6322 201.355 29.6976C201.319 29.7629 201.311 29.8397 201.332 29.9111L205.051 42.454C205.07 42.5078 205.105 42.5544 205.151 42.5876C205.197 42.6209 205.253 42.6391 205.31 42.6399Z" fill="#DC143C"/>
<path d="M201.711 27.0891C200.476 26.2989 199.42 26.8434 199.354 28.3042C199.358 29.101 199.55 29.8856 199.914 30.594C200.279 31.3025 200.806 31.9148 201.452 32.3812C202.68 33.178 203.736 32.6335 203.809 31.1727C203.803 30.3753 203.611 29.5903 203.246 28.8811C202.882 28.1718 202.356 27.558 201.711 27.0891Z" fill="#DC143C"/>
<path d="M93.2397 169.318L101.327 164.643L98.6314 163.089L90.5439 167.757L93.2397 169.318Z" fill="#E84C4F"/>
<path d="M109.421 159.975L117.516 155.301L114.813 153.747L106.726 158.415L109.421 159.975Z" fill="#E84C4F"/>
<path d="M106.095 158.07C106.095 161.974 103.359 166.702 99.9793 168.694C98.1799 169.736 96.5597 169.769 95.4442 168.986C94.9944 168.632 94.6251 168.187 94.3606 167.68C94.0961 167.173 93.9426 166.615 93.9103 166.044C94.1375 165.938 94.3591 165.821 94.5743 165.692C97.9541 163.747 100.69 158.999 100.69 155.068C100.693 154.777 100.675 154.487 100.637 154.198C101.143 153.93 101.7 153.771 102.272 153.73C102.843 153.689 103.417 153.767 103.957 153.959C105.285 154.517 106.095 155.958 106.095 158.07Z" fill="#263238"/>
<path d="M106.646 150.049L106.533 149.982C104.833 149.079 102.549 149.245 99.9793 150.719C94.7669 153.727 90.5372 161.044 90.5372 167.067C90.5372 170.095 91.6062 172.213 93.3326 173.196C95.059 174.178 97.3897 174.012 99.9726 172.532C105.185 169.524 109.408 162.2 109.408 156.177C109.415 153.149 108.366 151.031 106.646 150.049ZM100.006 168.68C98.1998 169.723 96.5796 169.756 95.4641 168.966C94.4814 168.302 93.8838 166.974 93.8838 165.148C93.8838 161.25 96.6261 156.516 100.006 154.524C101.546 153.634 102.947 153.481 103.99 153.94C105.278 154.491 106.088 155.932 106.088 158.056C106.095 161.987 103.359 166.735 99.9793 168.694L100.006 168.68Z" fill="#37474F"/>
<path d="M104.302 154.119L104.229 154.079C103.127 153.488 101.633 153.601 99.9793 154.55C96.5995 156.503 93.8572 161.25 93.8572 165.174C93.8572 167.166 94.5212 168.494 95.6699 169.158C96.8187 169.822 98.3259 169.69 99.9793 168.72C103.359 166.768 106.095 162.02 106.095 158.096C106.095 156.131 105.411 154.75 104.302 154.119ZM99.9793 167.299C98.5318 168.136 97.2303 168.162 96.3273 167.525C95.5438 166.974 95.0591 165.918 95.0591 164.457C95.1521 162.751 95.646 161.09 96.5009 159.61C97.3558 158.13 98.5474 156.872 99.9793 155.938C100.444 155.613 100.979 155.402 101.54 155.32C102.102 155.238 102.674 155.288 103.213 155.467C104.249 155.912 104.9 157.067 104.9 158.787C104.807 160.493 104.313 162.153 103.458 163.632C102.603 165.111 101.411 166.368 99.9793 167.299Z" fill="#DC143C"/>
<path d="M125.603 150.626L133.697 145.958L131.001 144.398L122.907 149.072L125.603 150.626Z" fill="#E84C4F"/>
<path d="M141.791 141.284L149.879 136.616L147.183 135.055L139.089 139.73L141.791 141.284Z" fill="#E84C4F"/>
<path d="M157.973 131.941L166.061 127.273L163.365 125.713L155.271 130.387L157.973 131.941Z" fill="#E84C4F"/>
<path d="M117.701 88.4958C117.786 88.3828 117.904 88.2997 118.039 88.2586C118.175 88.2174 118.319 88.2204 118.452 88.267C118.586 88.3136 118.7 88.4015 118.78 88.5179C118.86 88.6342 118.901 88.773 118.897 88.9141C118.949 89.292 118.91 89.6769 118.784 90.0371C118.658 90.3972 118.449 90.7224 118.173 90.9858C117.642 91.4439 117.104 91.258 116.978 90.5674C116.926 90.1895 116.965 89.8048 117.091 89.4447C117.217 89.0847 117.426 88.7595 117.701 88.4958Z" fill="#E84C4F"/>
<path d="M123.93 91.4305L118.518 88.3031L117.33 91.1649L122.761 94.299L123.93 91.4305Z" fill="#E84C4F"/>
<path d="M123.1 91.6099C123.631 91.1584 124.162 91.3443 124.295 92.0349C124.344 92.4122 124.303 92.7958 124.176 93.1546C124.049 93.5134 123.84 93.8372 123.565 94.0999C123.033 94.5581 122.496 94.3721 122.369 93.6816C122.321 93.3032 122.362 92.9188 122.489 92.559C122.615 92.1993 122.825 91.8742 123.1 91.6099Z" fill="#E84C4F"/>
<path d="M164.693 117.798C164.693 117.931 164.693 118.05 164.693 118.183C164.693 118.449 164.693 118.721 164.693 118.993C163.617 118.535 162.216 118.688 160.676 119.578C157.296 121.53 154.553 126.277 154.553 130.202C154.553 132.021 155.151 133.336 156.134 134.02C155.858 134.216 155.572 134.398 155.277 134.564L154.965 134.723L154.029 138.249L148.611 135.228C146.898 134.239 145.842 132.127 145.842 129.113C145.842 123.09 150.065 115.773 155.277 112.758C157.854 111.271 160.184 111.118 161.917 112.094L167.229 115.069L167.342 115.135L164.693 117.798Z" fill="#455A64"/>
<path d="M167.335 115.076L167.223 115.009C165.523 114.106 163.239 114.272 160.669 115.746C155.456 118.754 151.227 126.072 151.227 132.094C151.227 135.122 152.296 137.24 154.022 138.223C155.749 139.205 158.079 139.039 160.662 137.559C165.875 134.551 170.098 127.227 170.098 121.204C170.118 118.177 169.049 116.058 167.335 115.076ZM160.695 133.708C158.889 134.75 157.269 134.783 156.154 133.993C155.171 133.329 154.573 132.001 154.573 130.175C154.573 126.277 157.316 121.543 160.695 119.551C162.236 118.661 163.637 118.509 164.713 118.967C166.001 119.518 166.811 120.959 166.811 123.083C166.798 127.014 164.049 131.762 160.669 133.708H160.695Z" fill="#37474F"/>
<path d="M166.798 123.11C166.798 127.014 164.062 131.742 160.682 133.734C158.883 134.776 157.263 134.81 156.147 134.026C155.697 133.673 155.328 133.228 155.064 132.721C154.799 132.213 154.646 131.656 154.613 131.085C154.84 130.979 155.062 130.861 155.277 130.733C158.657 128.787 161.393 124.04 161.393 120.109C161.396 119.818 161.378 119.527 161.34 119.239C161.846 118.971 162.403 118.811 162.974 118.77C163.546 118.729 164.12 118.807 164.66 119C165.974 119.558 166.798 120.985 166.798 123.11Z" fill="#263238"/>
<path d="M164.991 119.146L164.918 119.099C163.816 118.515 162.316 118.621 160.669 119.578C157.289 121.53 154.547 126.271 154.547 130.202C154.547 132.194 155.211 133.522 156.36 134.186C157.508 134.85 159.015 134.71 160.669 133.741C164.049 131.795 166.784 127.048 166.784 123.117C166.798 121.158 166.134 119.783 164.991 119.146ZM160.669 132.32C159.215 133.163 157.913 133.19 157.017 132.552C156.227 132.001 155.749 130.945 155.749 129.484C155.842 127.778 156.336 126.117 157.19 124.637C158.045 123.157 159.237 121.899 160.669 120.965C161.904 120.248 163.033 120.122 163.896 120.494C164.932 120.939 165.582 122.094 165.582 123.814C165.49 125.518 164.997 127.177 164.143 128.655C163.29 130.133 162.099 131.388 160.669 132.32Z" fill="#DC143C"/>
<path d="M155.271 125.095L170.543 116.277C172.315 115.248 166.559 109.239 162.276 108.834C159.918 108.549 157.526 108.776 155.264 109.498C155.264 109.498 158.524 113.675 157.966 116.045C157.409 118.416 155.271 125.095 155.271 125.095Z" fill="#DC143C"/>
<path d="M133.697 100.175C133.697 100.175 155.835 111.344 156.791 112.015C157.747 112.685 156.791 120.474 155.271 125.095C153.75 129.717 151.413 136.822 150.477 138.814C149.54 140.806 148.319 141.549 146.074 142.844L130.138 152.054L108.565 154.683L99.9992 150.035L102.23 136.018C102.23 136.018 125.158 123.82 128.299 122.008C131.44 120.195 140.729 111.689 133.697 100.175Z" fill="#E84C4F"/>
<path opacity="0.2" d="M133.697 100.175C133.697 100.175 155.835 111.344 156.791 112.015C157.747 112.685 156.791 120.474 155.271 125.095C153.75 129.717 151.413 136.822 150.477 138.814C149.54 140.806 148.319 141.549 146.074 142.844L130.138 152.054L108.565 154.683L99.9992 150.035L102.23 136.018C102.23 136.018 125.158 123.82 128.299 122.008C131.44 120.195 140.729 111.689 133.697 100.175Z" fill="#8B001C"/>
<path d="M157.216 122.433C159.208 117.081 160.695 112.645 160.443 109.651C160.138 106.098 158.81 103.197 152.953 101.736C147.097 100.275 138.91 100.302 138.91 100.302L136.42 101.743C136.42 101.743 153.259 111.503 155.171 112.566C156.34 113.23 157.588 116.158 155.297 125.102L155.689 125.328C155.881 125.447 156.579 124.153 157.216 122.433Z" fill="#E84C4F"/>
<path opacity="0.3" d="M157.216 122.433C159.208 117.081 160.695 112.645 160.443 109.651C160.138 106.098 158.81 103.197 152.953 101.736C147.097 100.275 138.91 100.302 138.91 100.302L136.42 101.743C136.42 101.743 153.259 111.503 155.171 112.566C156.34 113.23 157.588 116.158 155.297 125.102L155.689 125.328C155.881 125.447 156.579 124.153 157.216 122.433Z" fill="#F17C93"/>
<path d="M144.461 106.404L147.183 104.85C147.183 104.85 147.024 95.4147 143.053 93.1239C139.082 90.8331 125.603 92.3934 125.603 92.3934L122.907 93.9472L144.461 106.404Z" fill="#DC143C"/>
<path d="M135.629 95.2818C134.335 96.0321 134.335 97.2406 135.629 97.9843C136.356 98.3539 137.159 98.5466 137.973 98.5466C138.788 98.5466 139.591 98.3539 140.317 97.9843C141.605 97.2406 141.605 96.0255 140.317 95.2818C139.59 94.9152 138.788 94.7242 137.973 94.7242C137.159 94.7242 136.356 94.9152 135.629 95.2818Z" fill="#F0F0F0"/>
<path d="M139.773 99.7903C138.863 100.322 138.863 101.178 139.773 101.703C140.287 101.965 140.856 102.103 141.433 102.103C142.01 102.103 142.579 101.965 143.093 101.703C144.009 101.178 144.009 100.322 143.093 99.7903C142.578 99.5306 142.009 99.3953 141.433 99.3953C140.856 99.3953 140.288 99.5306 139.773 99.7903Z" fill="#F0F0F0"/>
<path d="M129.341 94.0799C128.425 94.6045 128.425 95.4611 129.341 95.9922C129.856 96.252 130.425 96.3873 131.001 96.3873C131.578 96.3873 132.147 96.252 132.661 95.9922C133.578 95.4611 133.578 94.6045 132.661 94.0799C132.148 93.8171 131.579 93.6801 131.001 93.6801C130.424 93.6801 129.855 93.8171 129.341 94.0799Z" fill="#F0F0F0"/>
<path d="M144.886 103.668C145.417 103.21 145.948 103.396 146.081 104.086C146.13 104.465 146.089 104.849 145.962 105.209C145.835 105.569 145.626 105.894 145.35 106.158C145.266 106.271 145.147 106.354 145.012 106.395C144.877 106.436 144.733 106.433 144.6 106.387C144.466 106.34 144.351 106.252 144.272 106.136C144.192 106.02 144.151 105.881 144.155 105.74C144.104 105.361 144.144 104.976 144.271 104.616C144.398 104.256 144.608 103.931 144.886 103.668Z" fill="#E84C4F"/>
<path d="M151.081 106.603L145.663 103.476L144.481 106.337L149.905 109.465L151.081 106.603Z" fill="#E84C4F"/>
<path d="M150.244 106.782C150.329 106.669 150.447 106.586 150.582 106.545C150.717 106.504 150.862 106.507 150.995 106.554C151.128 106.6 151.243 106.688 151.323 106.804C151.403 106.921 151.444 107.059 151.439 107.201C151.49 107.579 151.45 107.964 151.323 108.324C151.196 108.684 150.986 109.009 150.709 109.272C150.178 109.73 149.646 109.538 149.514 108.854C149.464 108.476 149.505 108.091 149.631 107.731C149.758 107.371 149.968 107.046 150.244 106.782Z" fill="#E84C4F"/>
<path d="M150.244 106.782C150.329 106.669 150.447 106.586 150.582 106.545C150.717 106.504 150.862 106.507 150.995 106.554C151.128 106.6 151.243 106.688 151.323 106.804C151.403 106.921 151.444 107.059 151.439 107.201C151.49 107.579 151.45 107.964 151.323 108.324C151.196 108.684 150.986 109.009 150.709 109.272C150.178 109.73 149.646 109.538 149.514 108.854C149.464 108.476 149.505 108.091 149.631 107.731C149.758 107.371 149.968 107.046 150.244 106.782Z" fill="black"/>
<path d="M104.003 152.758C104.003 152.89 104.003 153.01 104.003 153.143C104.003 153.408 104.003 153.681 104.003 153.953C102.927 153.495 101.526 153.647 100.019 154.537C96.6394 156.489 93.8971 161.237 93.8971 165.161C93.8971 166.981 94.4947 168.295 95.4774 168.979C95.2015 169.175 94.9156 169.357 94.6208 169.524L94.3088 169.683L93.3725 173.209L87.9543 170.188C86.2412 169.198 85.1854 167.087 85.1854 164.072C85.1854 158.05 89.4084 150.732 94.6208 147.718C97.1972 146.231 99.5278 146.078 101.261 147.054L106.573 150.029L106.686 150.095L104.003 152.758Z" fill="#455A64"/>
<path d="M87.8414 142.22L83.7976 156.237L91.8918 160.912L96.0816 146.981L87.8414 142.22Z" fill="#E84C4F"/>
<path opacity="0.2" d="M87.8414 142.22L83.7976 156.237L91.8918 160.912L96.0816 146.981L87.8414 142.22Z" fill="#D53D45"/>
<path d="M87.8414 142.22C87.8414 142.22 92.4296 146.118 96.0816 146.981C100.876 148.143 108.498 148.269 111.201 148.455C115.331 148.74 118.452 148.734 119.913 148.209C121.805 147.545 126.891 144.59 128.299 143.78C130.995 142.227 132.143 136.111 124.713 134.438C119.689 133.397 114.572 132.874 109.441 132.877L87.8414 142.22Z" fill="#E84C4F"/>
<path d="M133.598 140.427C133.367 141.005 133.211 141.609 133.133 142.227C132.919 142.868 132.869 143.553 132.987 144.219C133.493 145.056 134.289 145.677 135.224 145.965C135.898 146.115 136.595 146.124 137.273 145.993C137.95 145.862 138.593 145.592 139.162 145.201C140.536 144.378 141.572 143.382 143.524 142.824C144.92 142.529 146.234 141.933 147.376 141.078C148.458 140.208 149.905 137.804 147.834 137.247C145.762 136.689 141.26 138.654 137.157 138.834L133.598 140.427Z" fill="#37474F"/>
<path d="M133.598 137.864V140.932C133.723 141.277 133.942 141.58 134.229 141.808C134.516 142.037 134.86 142.182 135.224 142.227C135.558 142.275 135.898 142.239 136.214 142.12C136.711 141.93 137.142 141.599 137.454 141.167C137.765 140.736 137.943 140.222 137.967 139.69L138.086 137.864H133.598Z" fill="#FFA8A7"/>
<path d="M139.441 118.894C139.441 122.712 138.365 139.219 138.365 139.219C138.365 139.219 136.805 141.211 133.412 139.219L132.27 120.773L139.441 118.894Z" fill="#37474F"/>
<path d="M121.646 135.162L132.27 129.04C132.705 128.811 133.07 128.468 133.324 128.047C133.578 127.626 133.713 127.144 133.713 126.652C133.713 126.161 133.578 125.679 133.324 125.258C133.07 124.837 132.705 124.494 132.27 124.265L124.355 119.697C123.909 119.471 123.417 119.354 122.917 119.354C122.418 119.354 121.925 119.471 121.48 119.697L110.856 125.819C110.422 126.049 110.06 126.393 109.807 126.813C109.554 127.234 109.42 127.715 109.42 128.206C109.42 128.697 109.554 129.178 109.807 129.599C110.06 130.019 110.422 130.363 110.856 130.593L118.77 135.162C119.216 135.387 119.709 135.505 120.208 135.505C120.708 135.505 121.2 135.387 121.646 135.162Z" fill="#E84C4F"/>
<path d="M121.646 135.162L132.27 129.04C132.705 128.811 133.07 128.468 133.324 128.047C133.578 127.626 133.713 127.144 133.713 126.652C133.713 126.161 133.578 125.679 133.324 125.258C133.07 124.837 132.705 124.494 132.27 124.265L124.355 119.697C123.909 119.471 123.417 119.354 122.917 119.354C122.418 119.354 121.925 119.471 121.48 119.697L110.856 125.819C110.422 126.049 110.06 126.393 109.807 126.813C109.554 127.234 109.42 127.715 109.42 128.206C109.42 128.697 109.554 129.178 109.807 129.599C110.06 130.019 110.422 130.363 110.856 130.593L118.77 135.162C119.216 135.387 119.709 135.505 120.208 135.505C120.708 135.505 121.2 135.387 121.646 135.162Z" fill="white"/>
<path d="M110.856 127.479L118.771 132.047C119.216 132.273 119.709 132.391 120.208 132.391C120.708 132.391 121.2 132.273 121.646 132.047L132.27 125.925C132.443 125.867 132.594 125.755 132.7 125.606C132.807 125.457 132.864 125.279 132.864 125.095C132.864 124.912 132.807 124.734 132.7 124.585C132.594 124.436 132.443 124.324 132.27 124.265L124.355 119.697C123.909 119.471 123.417 119.354 122.917 119.354C122.418 119.354 121.925 119.471 121.48 119.697L110.856 125.819C110.682 125.878 110.532 125.99 110.425 126.139C110.318 126.287 110.261 126.466 110.261 126.649C110.261 126.832 110.318 127.011 110.425 127.16C110.532 127.309 110.682 127.42 110.856 127.479Z" fill="#E84C4F"/>
<path d="M117.33 86.8424L115.982 92.4L110.192 92.752L111.44 85.0496L117.33 86.8424Z" fill="#FFA8A7"/>
<path d="M122.974 82.6592C122.974 82.6592 123.638 85.0097 123.365 85.1425C122.947 85.2063 122.522 85.2063 122.104 85.1425L122.974 82.6592Z" fill="#F28F8F"/>
<path d="M121.865 75.156C122.794 76.2516 123.644 78.051 122.987 82.46C122.27 87.2806 121.38 87.8384 120.663 88.3032C119.727 88.9141 115.982 88.5887 114.926 87.8185C113.658 86.8955 111.699 83.9673 111.234 81.0789C110.69 77.6858 111.825 73.921 114.322 73.2769C117.834 72.3672 121.075 74.2264 121.865 75.156Z" fill="#FFA8A7"/>
<path d="M110.856 86.61C111.752 87.5396 113.591 87.7919 114.747 88.0044C115.902 88.2168 119.454 88.4492 120.504 85.9194C121.553 83.3896 120.836 81.5702 122.124 80.9593C123.412 80.3484 124.7 79.95 125.039 79.6313C125.377 79.3126 125.384 75.1493 121.924 72.9913C118.465 70.8333 113.166 70.3353 109.68 74.7111C107.038 78.0908 108.12 83.7548 110.856 86.61Z" fill="#455A64"/>
<path d="M114.342 88.0376C115.238 88.1173 118.073 87.6724 118.93 86.5037C119.786 85.3351 120.132 83.2435 120.258 82.1479C120.269 81.7164 120.428 81.3018 120.707 80.9723C120.985 80.6427 121.368 80.418 121.792 80.3352C122.648 80.063 124.541 79.1334 124.541 79.1334V78.6154C125.151 78.5771 125.763 78.5771 126.373 78.6154C126.772 78.6885 126.553 79.2794 125.543 79.7907C124.534 80.302 121.765 81.2914 121.34 81.63C120.915 81.9686 120.716 83.3962 120.377 84.9168C120.039 86.4373 118.99 88.7082 114.342 88.0376Z" fill="#37474F"/>
<path d="M122.31 94.3256L125.63 92.4199C125.948 91.4571 125.437 90.9724 124.534 91.0322C123.631 91.0919 123.91 90.2154 123.359 89.9698C122.635 89.6378 122.223 89.8237 121.898 89.671C121.573 89.5182 121.433 89.1331 121.008 89.0866C119.109 88.9074 117.814 91.6165 117.814 91.6165L122.31 94.3256Z" fill="#F28F8F"/>
<path d="M99.7734 118.708C99.7734 118.708 114.441 111.437 116.998 110.262C119.554 109.086 123.565 107.38 125.696 107.38C126.529 107.449 127.309 107.816 127.893 108.413C128.478 109.011 128.827 109.799 128.877 110.633C128.904 111.914 128.831 113.195 128.657 114.465C124.627 115.787 120.509 116.823 116.334 117.566C110.231 118.628 99.7734 118.708 99.7734 118.708Z" fill="#37474F"/>
<path d="M101.367 114.505C101.367 117.519 101.082 120.653 102.337 122.858C103.591 125.062 110.391 130.162 116.792 129.093C120.975 128.389 133.392 122.672 133.392 122.672C133.392 122.672 139.414 120.461 139.441 118.887C139.481 116.57 139.321 113.303 134.069 113.442C129.282 113.568 115.158 116.517 115.158 116.517L101.367 114.505Z" fill="#455A64"/>
<path d="M105.464 90.6205C107.735 88.25 109.269 88.0508 110.358 88.343C112.86 89.0592 115.283 90.0293 117.589 91.238C117.589 91.238 116.712 99.724 120.862 102.167V115.394C120.862 115.394 120.736 116.829 118.93 118.256C117.336 119.511 113.731 120.779 109.428 120.421C104.315 119.996 101.367 114.505 101.367 114.505C101.367 114.505 101.234 103.688 101.958 99.392C102.808 94.3788 104.68 91.4439 105.464 90.6205Z" fill="#455A64"/>
<path d="M120.862 102.812C120.862 102.812 118.352 100.82 117.589 98.23C117.589 98.23 117.887 102.294 120.862 104.352V102.812Z" fill="#37474F"/>
<path d="M144.095 109.053C145.288 109.102 146.46 108.739 147.415 108.024C147.415 108.024 148.571 105.78 149.992 105.972C149.992 105.972 150.244 105.016 149.66 104.704C149.075 104.392 148.823 104.478 148.584 104.146C148.345 103.814 148.318 103.197 147.256 103.197C146.818 103.197 146.878 102.885 145.815 102.758C144.753 102.632 143.704 105.082 142.927 105.082L144.095 109.053Z" fill="#FFA8A7"/>
<path d="M117.589 91.238C121.234 91.8024 122.555 92.8847 123.883 94.1131C125.211 95.3415 133.339 103.495 133.339 103.495L143.179 104.91C143.696 105.329 144.076 105.893 144.268 106.53C144.667 107.685 144.308 108.947 143.929 109.246C143.929 109.246 134.169 109.83 132.25 109.465C130.331 109.1 120.829 102.792 120.829 102.792C119.921 102.107 119.159 101.247 118.589 100.263C118.019 99.2784 117.651 98.1898 117.509 97.0613C116.891 93.0574 117.589 91.238 117.589 91.238Z" fill="#455A64"/>
<path d="M108.837 126.311L93.7576 144.717C93.5902 144.738 93.4217 144.749 93.253 144.75C92.655 144.759 92.0641 144.62 91.5332 144.345L78.7977 136.988L77.9345 136.49C77.4631 136.217 77.0713 135.102 77.0713 134V130.899C77.0708 127.713 77.9087 124.584 79.5009 121.825C81.093 119.066 83.3833 116.775 86.1415 115.182L101.347 106.404L117.529 115.746L108.837 126.311Z" fill="#E84C4F"/>
<g opacity="0.1">
<path opacity="0.1" d="M108.837 126.311L93.7576 144.717C93.5902 144.738 93.4217 144.749 93.253 144.75C92.655 144.759 92.0641 144.62 91.5332 144.345L78.7977 136.988L77.9345 136.49C77.4631 136.217 77.0713 135.102 77.0713 134V130.899C77.0708 127.713 77.9087 124.584 79.5009 121.825C81.093 119.066 83.3833 116.775 86.1415 115.182L101.347 106.404L117.529 115.746L108.837 126.311Z" fill="#DC143C"/>
</g>
<path d="M103.638 132.658L117.509 115.753L101.327 106.41L86.1282 115.182C84.1622 116.32 82.4277 117.818 81.0154 119.597L103.638 132.658Z" fill="#E84C4F"/>
<path d="M117.509 129.325C117.509 130.427 117.124 131.543 116.646 131.815L115.783 132.313L94.9595 144.338C94.5806 144.542 94.1657 144.671 93.7377 144.717C93.5703 144.738 93.4018 144.749 93.2331 144.75V140.241C93.2326 137.055 94.0712 133.925 95.6646 131.166C97.2581 128.407 99.55 126.116 102.31 124.524L104.03 123.535L117.509 115.746V129.325Z" fill="#E84C4F"/>
<g opacity="0.2">
<path opacity="0.2" d="M117.509 129.325C117.509 130.427 117.124 131.543 116.646 131.815L115.783 132.313L94.9595 144.338C94.5806 144.542 94.1657 144.671 93.7377 144.717C93.5703 144.738 93.4018 144.749 93.2331 144.75V140.241C93.2326 137.055 94.0712 133.925 95.6646 131.166C97.2581 128.407 99.55 126.116 102.31 124.524L104.03 123.535L117.509 115.746V129.325Z" fill="#DC143C"/>
</g>
<path d="M121.978 152.1L130.125 152.074L141.785 145.341L130.364 153.594L121.765 153.714L121.978 152.1Z" fill="#E0E0E0"/>
<path d="M102.197 163.694C102.197 163.694 116.885 158.156 118.133 157.505C119.598 156.607 120.988 155.593 122.29 154.471C122.555 154.119 122.68 153.682 122.64 153.243C122.599 152.805 122.396 152.397 122.071 152.1C122.071 152.1 116.095 151.828 114.561 152.299C113.704 152.558 99.8797 156.994 99.8797 156.994L102.197 163.694Z" fill="#E0E0E0"/>
<path d="M101.54 157.505C100.325 156.463 99.1028 156.894 98.804 158.461C98.6899 159.326 98.7814 160.205 99.0709 161.028C99.3605 161.851 99.8401 162.593 100.471 163.196C101.686 164.238 102.908 163.813 103.206 162.24C103.32 161.375 103.228 160.496 102.939 159.673C102.649 158.851 102.17 158.108 101.54 157.505Z" fill="#455A64"/>
</svg>
