<svg width="213" height="213" viewBox="0 0 213 213" fill="none" xmlns="http://www.w3.org/2000/svg">
<circle cx="106.5" cy="106.5" r="106.5" fill="#FAD1D9"/>
<path d="M171.815 57.6931L152.559 70.4179C147.819 73.5462 141.344 72.2357 138.212 67.5009C135.081 62.7661 136.393 56.298 141.133 53.1697L160.389 40.4449C165.128 37.3165 171.604 38.6271 174.735 43.3619C177.867 48.0967 176.555 54.5647 171.815 57.6931Z" fill="#FACEA7"/>
<path d="M141.217 142.793C145.492 185.068 118.703 195.045 94.3259 195.763C57.5915 196.862 35.0345 130.279 44.6836 120.683C46.842 118.527 50.3546 119.457 59.3689 115.229C66.3519 111.932 70.7955 108.296 72.6577 106.859C79.9792 101.279 109.096 82.8466 126.236 91.048C141.641 98.4038 139.44 125.375 141.217 142.793Z" fill="#FACEA7"/>
<path d="M127.675 138.185C124.247 158.308 108.461 182.869 87.6392 183.503C56.2795 184.433 37.0236 127.447 45.2338 119.288C47.0536 117.47 50.0583 118.273 57.7607 114.595C63.728 111.763 67.4945 108.677 69.145 107.451C75.4085 102.674 100.251 86.9051 114.894 93.9227C128.056 100.179 130.214 123.431 127.675 138.185Z" fill="#F8BE91"/>
<path d="M54.3327 185.068C47.4344 185.068 35.5423 180.925 35.5423 167.735V98.4038C35.5423 91.5975 41.171 86.0172 48.0692 86.0172C54.9675 86.0172 60.5962 91.5975 60.5962 98.4038V167.735C60.5962 174.541 54.3327 185.068 54.3327 185.068Z" fill="#FACEA7"/>
<path d="M60.5962 192.381C70.483 192.381 78.4979 182.217 78.4979 169.679C78.4979 157.142 70.483 146.978 60.5962 146.978C50.7094 146.978 42.6945 157.142 42.6945 169.679C42.6945 182.217 50.7094 192.381 60.5962 192.381Z" fill="#FACEA7"/>
<path d="M133.346 185.068H46.715V212.842H133.346V185.068Z" fill="#41555F"/>
<path d="M133.346 208.742H46.715V210.179H133.346V208.742Z" fill="#ECECEC"/>
<path d="M49.3389 167.735V98.4038C49.3389 94.0917 51.5819 90.3293 54.9675 88.0887C52.9784 86.7782 50.6085 86.0172 48.0692 86.0172C41.171 86.0172 35.5423 91.5975 35.5423 98.4038V167.735C35.5423 180.925 47.4344 185.068 54.3327 185.068C54.3327 185.068 55.1791 183.63 56.2795 181.432C52.386 178.769 49.3389 174.414 49.3389 167.735Z" fill="#F8BE91"/>
<path d="M133.346 188.365H46.715V189.802H133.346V188.365Z" fill="#ECECEC"/>
<path d="M37.4044 111.171H35.5V110.368H37.4044C42.5676 110.368 46.7996 106.14 46.7996 100.983V94.6837H35.5V93.8805H47.6037V101.025C47.6461 106.605 43.0331 111.171 37.4044 111.171Z" fill="#FCDBBF"/>
<path d="M147.142 179.656L63.1355 179.614C60.5962 179.614 58.5225 177.543 58.5225 175.006L58.6072 13.7692C58.6072 11.2327 60.6809 9.16125 63.2201 9.16125L147.227 9.20353C149.766 9.20353 151.84 11.275 151.84 13.8115L151.755 175.048C151.755 177.585 149.681 179.656 147.142 179.656Z" fill="#DC143C"/>
<path d="M144.857 158.265L65.4208 158.223C65.1246 158.223 64.8707 157.969 64.8707 157.673L64.9553 21.3366C64.9553 21.0406 65.2092 20.787 65.5055 20.787L144.942 20.8293C145.238 20.8293 145.492 21.0829 145.492 21.3788L145.407 157.716C145.449 158.012 145.195 158.265 144.857 158.265Z" fill="white"/>
<path d="M117.518 16.4326H90.6017C89.7553 16.4326 89.0782 15.7562 89.0782 14.9107C89.0782 14.0652 89.7553 13.3888 90.6017 13.3888H117.518C118.364 13.3888 119.041 14.0652 119.041 14.9107C119.084 15.7562 118.364 16.4749 117.518 16.4326Z" fill="#FABDC9"/>
<path d="M121.961 16.4748C121.115 16.4748 120.438 15.7984 120.438 14.9529C120.438 14.1074 121.115 13.431 121.961 13.431C122.808 13.431 123.485 14.1074 123.485 14.9529C123.485 15.7562 122.808 16.4748 121.961 16.4748Z" fill="#FABDC9"/>
<path d="M159.288 118.273L153.279 122.247C148.539 125.375 142.064 124.065 138.932 119.33C135.8 114.595 137.112 108.127 141.852 104.999L147.862 101.025C152.602 97.8965 159.077 99.207 162.208 103.942C165.34 108.719 164.028 115.145 159.288 118.273Z" fill="#FACEA7"/>
<path d="M162.208 103.942C162.124 103.815 162.039 103.73 161.955 103.604C164.282 107.493 163.139 112.608 159.331 115.145L150.359 121.063C146.55 123.6 141.387 122.627 138.678 118.992C138.763 119.119 138.805 119.245 138.89 119.33C142.021 124.065 148.497 125.375 153.236 122.247L159.246 118.273C164.028 115.145 165.34 108.719 162.208 103.942Z" fill="#F8BE91"/>
<path d="M148.835 120.091C148.666 120.091 148.539 120.091 148.369 120.049C147.523 119.922 146.761 119.457 146.253 118.78L141.556 112.228C140.582 110.875 140.836 108.973 142.148 107.916L145.153 105.548C146.55 104.449 148.285 103.984 150.062 104.238C151.924 104.491 153.617 105.548 154.76 107.155C157.088 110.368 156.537 114.891 153.575 117.216L150.739 119.457C150.232 119.837 149.554 120.091 148.835 120.091ZM146.931 118.315C147.311 118.823 147.862 119.161 148.496 119.288C149.131 119.372 149.766 119.203 150.274 118.823L153.109 116.582C155.733 114.511 156.199 110.494 154.167 107.62C153.152 106.182 151.67 105.252 150.02 105.041C148.496 104.83 146.931 105.252 145.746 106.182L142.741 108.55C141.767 109.311 141.556 110.748 142.275 111.763L146.931 118.315Z" fill="#FCDBBF"/>
<path d="M161.362 137.931L155.479 140.806C150.866 143.046 145.238 141.144 142.995 136.536C140.752 131.928 142.656 126.305 147.269 124.065L153.152 121.19C157.765 118.949 163.393 120.852 165.636 125.46C167.922 130.068 166.017 135.69 161.362 137.931Z" fill="#FACEA7"/>
<path d="M165.679 125.46C165.636 125.333 165.552 125.248 165.509 125.122C167.118 128.884 165.509 133.323 161.785 135.141L153.067 139.368C149.343 141.186 144.857 139.706 142.868 136.113C142.91 136.24 142.952 136.324 142.995 136.451C145.238 141.059 150.866 143.004 155.479 140.721L161.362 137.846C166.017 135.69 167.922 130.068 165.679 125.46Z" fill="#F8BE91"/>
<path d="M152.221 138.396C151.967 138.396 151.713 138.354 151.459 138.269C150.697 138.058 150.062 137.55 149.681 136.832L146.253 130.406C145.534 129.053 146 127.362 147.312 126.559L150.274 124.783C151.671 123.938 153.279 123.726 154.845 124.191C156.495 124.657 157.892 125.798 158.738 127.362C160.431 130.533 159.415 134.549 156.453 136.282L153.66 137.931C153.236 138.269 152.729 138.396 152.221 138.396ZM153.279 124.826C152.39 124.826 151.501 125.079 150.697 125.544L147.735 127.32C146.761 127.869 146.423 129.095 146.973 130.068L150.401 136.494C150.655 137.001 151.12 137.381 151.671 137.508C152.221 137.677 152.813 137.593 153.279 137.297L156.072 135.648C158.653 134.126 159.542 130.575 158.061 127.785C157.299 126.39 156.114 125.417 154.675 124.995C154.167 124.868 153.702 124.826 153.279 124.826Z" fill="#FCDBBF"/>
<path d="M135.462 158.223H73.8849V132.689C73.8849 121.063 83.3224 111.594 95.003 111.594H114.344C125.982 111.594 135.462 121.021 135.462 132.689V158.223Z" fill="#41555F"/>
<path d="M156.749 97.051L149.978 100.983C144.645 104.111 137.366 102.8 133.853 98.1078C130.298 93.4153 131.78 87.0318 137.112 83.9457L143.883 80.0141C149.216 76.8858 156.495 78.1963 160.008 82.8888C163.563 87.5814 162.081 93.9649 156.749 97.051Z" fill="#FACEA7"/>
<path d="M160.008 82.889C159.923 82.7622 159.838 82.6776 159.711 82.5508C162.335 86.3978 161.066 91.4708 156.749 93.965L146.677 99.8413C142.36 102.335 136.562 101.405 133.557 97.7698C133.642 97.8966 133.726 98.0234 133.811 98.108C137.366 102.801 144.603 104.111 149.935 100.983L156.707 97.0511C162.081 93.965 163.563 87.5815 160.008 82.889Z" fill="#F8BE91"/>
<path d="M143.545 98.7843C143.376 98.7843 143.249 98.7843 143.079 98.742C142.233 98.6152 141.471 98.1502 140.963 97.4738L136.266 90.9211C135.292 89.5683 135.546 87.666 136.858 86.6091L139.863 84.2417C141.26 83.1425 142.995 82.6775 144.772 82.9311C146.634 83.1848 148.327 84.2417 149.47 85.8481C151.755 89.061 151.247 93.5845 148.285 95.9096L145.449 98.1502C144.942 98.5729 144.264 98.7843 143.545 98.7843ZM141.64 97.0087C142.021 97.516 142.572 97.8542 143.206 97.9811C143.841 98.0656 144.476 97.8965 144.984 97.516L147.819 95.2755C150.443 93.204 150.909 89.1878 148.877 86.3131C147.862 84.8758 146.38 83.9457 144.688 83.7344C143.164 83.523 141.64 83.9457 140.413 84.8758L137.408 87.2432C136.435 88.0042 136.223 89.4415 136.943 90.4561L141.64 97.0087Z" fill="#FCDBBF"/>
<path d="M104.652 176.528C108.929 176.528 112.397 173.064 112.397 168.792C112.397 164.519 108.929 161.055 104.652 161.055C100.375 161.055 96.9074 164.519 96.9074 168.792C96.9074 173.064 100.375 176.528 104.652 176.528Z" fill="#FABDC9"/>
<path d="M115.232 113.538L114.301 90.4561L96.1033 89.9489L95.003 117.005C94.876 119.964 97.4576 119.415 100.42 119.288L110.45 118.78C113.243 118.611 115.359 116.286 115.232 113.538Z" fill="#FACBB6"/>
<path d="M96.7805 95.2755L114.936 105.929L114.301 90.4562L96.7805 95.2755Z" fill="#F6B7A0"/>
<path d="M136.012 74.0112C136.012 77.7737 132.965 80.8175 129.198 80.8175C125.432 80.8175 122.384 77.7737 122.384 74.0112C122.384 70.2488 125.432 67.205 129.198 67.205C132.965 67.205 136.012 70.2488 136.012 74.0112Z" fill="#FACBB6"/>
<path d="M82.1798 80.8175C85.9429 80.8175 88.9934 77.7702 88.9934 74.0112C88.9934 70.2522 85.9429 67.205 82.1798 67.205C78.4167 67.205 75.3661 70.2522 75.3661 74.0112C75.3661 77.7702 78.4167 80.8175 82.1798 80.8175Z" fill="#FACBB6"/>
<path d="M126.87 61.836C126.87 70.5024 125.601 77.9851 124.374 83.3117C123.146 88.5115 119.676 92.1472 114.809 95.0642L113.92 95.5715C108.715 98.6998 102.113 98.7844 96.8228 95.7828C91.5327 92.7813 87.8507 88.8075 86.7081 83.2272C84.6344 73.0812 84.4228 61.836 84.4228 61.836C84.4228 61.836 82.4337 39.9375 105.329 40.3603C128.225 40.8253 126.87 61.836 126.87 61.836Z" fill="#FACBB6"/>
<path d="M85.6501 70.7561C85.6501 70.7561 90.4746 55.1989 86.962 45.1375C87.0044 45.1375 73.5041 48.9845 85.6501 70.7561Z" fill="#01384F"/>
<path d="M126.024 70.7561C126.024 70.7561 119.93 55.1989 123.443 45.1375C123.4 45.1375 136.012 48.2235 126.024 70.7561Z" fill="#01384F"/>
<path d="M87.9777 52.1126C87.9777 52.1126 91.8289 45.1372 98.7695 48.9842C105.71 52.8313 112.566 56.5092 124.966 53.4654L123.316 45.0949C123.316 45.0949 106.091 26.7899 86.8774 45.0949L87.9777 52.1126Z" fill="#01384F"/>
<path d="M86.8774 45.095C86.8774 45.095 87.9777 32.4125 105.922 31.3134C123.866 30.2142 129.156 39.7684 129.156 39.7684L125.897 40.3603C125.897 40.3603 132.161 43.0658 133.811 45.6869L130.298 46.9129L134.954 51.0558C134.954 51.0558 120.311 56.7207 112.228 53.6769L105.499 43.5309L86.8774 45.095Z" fill="#01384F"/>
<path d="M98.0924 111.298L90.5169 111.425C90.5169 111.425 89.7128 121.021 104.483 121.486C119.253 121.951 119.507 112.016 119.507 112.016L111.508 111.298H98.0924Z" fill="#FACBB6"/>
<path d="M131.568 99.4184H76.8897V44.8413H131.568V99.4184ZM77.6092 98.742H130.849V45.5177H77.6092V98.742Z" fill="#2A94F4"/>
<mask id="mask0_233_1996" style="mask-type:alpha" maskUnits="userSpaceOnUse" x="77" y="62" width="55" height="24">
<path d="M131.357 62.3433H77.1436V85.7213H131.357V62.3433Z" fill="url(#paint0_linear_233_1996)"/>
</mask>
<g mask="url(#mask0_233_1996)">
<path d="M131.357 62.3433H77.1436V85.7213H131.357V62.3433Z" fill="#DC143C"/>
</g>
<defs>
<linearGradient id="paint0_linear_233_1996" x1="104.224" y1="60.4436" x2="104.224" y2="84.6487" gradientUnits="userSpaceOnUse">
<stop stop-color="white"/>
<stop offset="1"/>
</linearGradient>
</defs>
</svg>
